<svg width="623" height="750" viewBox="0 0 623 750" fill="none" xmlns="http://www.w3.org/2000/svg">
<path d="M156.584 499.173V402.526L241.012 352.888V448.516L156.584 499.173Z" fill="#E6E8EA"/>
<path d="M310.082 410.927V314.196L394.595 264.557V360.185L310.082 410.927Z" fill="#E6E8EA" stroke="#003D2E" stroke-width="5" stroke-linecap="round" stroke-linejoin="round"/>
<path d="M238.552 549.15L322.131 501.379L239.74 451.401L155.397 500.954L238.552 549.15Z" fill="#00FF94"/>
<path d="M394.424 460.057L478.002 412.285L395.612 362.307L311.184 411.861L394.424 460.057Z" fill="#00FF94" stroke="#163B2F" stroke-width="5" stroke-linecap="round" stroke-linejoin="round"/>
<path d="M321.79 307.577L405.285 356.621L325.608 402.951L241.774 353.821L156.159 403.29L3 315.553L89.55 265.151L161.504 307.577L169.82 302.655L169.565 218.567L243.981 175.207L394.508 264.981L321.79 307.577Z" fill="#00FF94" stroke="#163B2F" stroke-width="5" stroke-linecap="round" stroke-linejoin="round"/>
<path d="M169.821 302.655L241.012 260.823L169.906 219.669L169.821 302.655Z" fill="white"/>
<path d="M168.632 302.485L168.462 219.839" stroke="#003C2E" stroke-width="5" stroke-linecap="round" stroke-linejoin="round"/>
<path d="M241.011 744.735V549.83L326.203 500.276L325.694 403.036L405.37 356.706L405.879 453.607L477.752 412.454V607.02L241.011 744.735Z" fill="#E6E8EA" stroke="#003D2E" stroke-width="5" stroke-linecap="round" stroke-linejoin="round"/>
<path d="M237.023 746.686C238.635 747.62 240.586 746.432 240.586 744.65V551.357L157.262 502.736C156.498 502.312 156.074 501.548 156.074 500.7V403.374L155.819 403.12L6.56396 315.892C4.95196 314.958 3 314.789 3 316.655V608.632C3 609.48 3.42499 610.244 4.18799 610.668L237.023 746.771V746.686Z" fill="white" stroke="#163B2F" stroke-width="5" stroke-linecap="round" stroke-linejoin="round"/>
<path d="M240.587 449.45L156.074 500.191" stroke="#003C2E" stroke-width="5" stroke-linecap="round" stroke-linejoin="round"/>
<path d="M326.034 500.276V403.629L242.115 354.584V450.467L326.034 500.276Z" fill="white"/>
<path d="M242.115 450.467V354.584" stroke="#003C2E" stroke-width="5" stroke-linecap="round" stroke-linejoin="round"/>
<path d="M4.27393 508.846L240.588 646.986" stroke="#003C2E" stroke-width="5" stroke-linecap="round" stroke-linejoin="round"/>
<path d="M4.35889 411.605L158.281 503.245" stroke="#003C2E" stroke-width="5" stroke-linecap="round" stroke-linejoin="round"/>
<path d="M156.075 500.191L154.717 697.727" stroke="#003C2E" stroke-width="5" stroke-linecap="round" stroke-linejoin="round"/>
<path d="M76.8228 356.96V653.179" stroke="#003C2E" stroke-width="5" stroke-linecap="round" stroke-linejoin="round"/>
<path d="M241.86 646.222L477.492 508.931" stroke="#003C2E" stroke-width="5" stroke-linecap="round" stroke-linejoin="round"/>
<path d="M286.323 522.592L409.783 451.401" stroke="#003C2E" stroke-width="5" stroke-linecap="round" stroke-linejoin="round"/>
<path d="M326.033 695.266V402.526" stroke="#003C2E" stroke-width="5" stroke-linecap="round" stroke-linejoin="round"/>
<path d="M405.286 359.761V649.107" stroke="#003C2E" stroke-width="5" stroke-linecap="round" stroke-linejoin="round"/>
<path d="M161.506 307.577L325.016 402.527" stroke="#003C2E" stroke-width="5" stroke-linecap="round" stroke-linejoin="round"/>
<path d="M241.775 353.822L321.791 307.577" stroke="#003C2E" stroke-width="5" stroke-linecap="round" stroke-linejoin="round"/>
<path d="M76.8228 356.961L314.409 217.888" stroke="#003C2E" stroke-width="5" stroke-linecap="round" stroke-linejoin="round"/>
<path d="M168.802 218.82L403.757 355.517" stroke="#003C2E" stroke-width="5" stroke-linecap="round" stroke-linejoin="round"/>
<path d="M258.916 580.121V482.626L341.732 434.939V531.331L258.916 580.121Z" fill="#E6E8EA" stroke="#003D2E" stroke-width="5" stroke-linecap="round" stroke-linejoin="round"/>
<path d="M258.914 580.291V482.796L176.862 434.939V531.671L258.914 580.291Z" fill="white" stroke="#163B2F" stroke-width="5" stroke-linecap="round" stroke-linejoin="round"/>
<path d="M217.548 50.0077L137.787 96.3377L58.1099 49.9237L138.72 3L217.548 50.0077Z" fill="#003D2E" stroke="#163B2F" stroke-width="5" stroke-linecap="round" stroke-linejoin="round"/>
<path d="M137.788 190.183V95.9124L217.888 49.8374V143.005L137.788 190.183Z" fill="#E6E8EA" stroke="#003D2E" stroke-width="5" stroke-linecap="round" stroke-linejoin="round"/>
<path d="M137.787 190.183V95.9124L58.4497 49.7524V143.175L137.787 190.183Z" fill="white" stroke="#163B2F" stroke-width="5" stroke-linecap="round" stroke-linejoin="round"/>
<path d="M619.382 237.192L539.622 283.521L459.942 237.107L540.552 190.184L619.382 237.192Z" fill="#003D2E" stroke="#163B2F" stroke-width="5" stroke-linecap="round" stroke-linejoin="round"/>
<path d="M539.622 377.366V283.18L619.722 237.021V330.189L539.622 377.366Z" fill="#E6E8EA" stroke="#003D2E" stroke-width="5" stroke-linecap="round" stroke-linejoin="round"/>
<path d="M539.622 377.368V283.182L460.282 236.937V330.445L539.622 377.368Z" fill="white" stroke="#163B2F" stroke-width="5" stroke-linecap="round" stroke-linejoin="round"/>
<path d="M341.73 435.195L259.254 483.136L176.862 435.11L260.187 386.574L341.73 435.195Z" fill="#003D2E" stroke="#163B2F" stroke-width="5" stroke-linecap="round" stroke-linejoin="round"/>
</svg>
