<svg width="657" height="663" viewBox="0 0 657 663" fill="none" xmlns="http://www.w3.org/2000/svg">
<path d="M565.163 288.46L502.573 352.593L569.173 390.167L632.593 327.063L565.163 288.46Z" fill="white" stroke="black" stroke-width="5" stroke-linejoin="round"/>
<path d="M654.204 385.432L591.514 449.668L569.174 390.167L632.584 327.063L654.204 385.432Z" fill="white" stroke="black" stroke-width="5" stroke-linejoin="round"/>
<path d="M524.093 410.962L502.573 352.593L569.173 390.167L591.513 449.668L524.093 410.962Z" fill="white" stroke="black" stroke-width="5" stroke-linejoin="round"/>
<path d="M478.594 374.726L415.894 438.962L482.604 476.536L546.014 413.432L478.594 374.726Z" fill="#00FF94" stroke="black" stroke-width="5" stroke-linecap="round" stroke-linejoin="round"/>
<path d="M567.533 471.801L504.953 536.037L482.613 476.536L546.023 413.432L567.533 471.801Z" fill="#00FF94" stroke="black" stroke-width="5" stroke-linecap="round" stroke-linejoin="round"/>
<path d="M437.514 497.33L415.894 438.962L482.604 476.536L504.943 536.037L437.514 497.33Z" fill="#00FF94" stroke="black" stroke-width="5" stroke-linecap="round" stroke-linejoin="round"/>
<path d="M424.654 155.664L362.064 219.9L428.664 257.474L492.083 194.37L424.654 155.664Z" fill="white" stroke="black" stroke-width="5" stroke-linejoin="round"/>
<path d="M513.694 252.739L451.104 316.975L428.664 257.474L492.084 194.37L513.694 252.739Z" fill="white" stroke="black" stroke-width="5" stroke-linejoin="round"/>
<path d="M383.683 278.269L362.064 219.9L428.664 257.474L451.113 316.975L383.683 278.269Z" fill="white" stroke="black" stroke-width="5" stroke-linejoin="round"/>
<path d="M217.221 97.1929L154.632 161.429L221.236 199.003L284.649 135.796L217.221 97.1929Z" fill="white" stroke="black" stroke-width="5" stroke-linejoin="round"/>
<path d="M306.263 194.165L243.674 258.401L221.233 199.003L284.645 135.796L306.263 194.165Z" fill="white" stroke="black" stroke-width="5" stroke-linejoin="round"/>
<path d="M176.25 219.797L154.632 161.429L221.236 199.003L243.678 258.401L176.25 219.797Z" fill="white" stroke="black" stroke-width="5" stroke-linejoin="round"/>
<path d="M136.819 172.135L74.127 236.268L140.731 273.842L204.247 210.738L136.819 172.135Z" fill="white" stroke="black" stroke-width="5" stroke-linejoin="round"/>
<path d="M225.76 269.107L163.169 333.343L140.729 273.842L204.245 210.738L225.76 269.107Z" fill="white" stroke="black" stroke-width="5" stroke-linejoin="round"/>
<path d="M95.7449 294.636L74.127 236.268L140.731 273.842L163.173 333.343L95.7449 294.636Z" fill="white" stroke="black" stroke-width="5" stroke-linejoin="round"/>
<path d="M65.59 252.739L3 316.975L69.604 354.549L133.017 291.342L65.59 252.739Z" fill="#00FF94" stroke="black" stroke-width="5" stroke-linecap="round" stroke-linejoin="round"/>
<path d="M154.634 349.711L92.0435 413.947L69.6025 354.549L133.016 291.342L154.634 349.711Z" fill="#00FF94" stroke="black" stroke-width="5" stroke-linecap="round" stroke-linejoin="round"/>
<path d="M24.618 375.24L3 316.975L69.604 354.549L92.046 413.947L24.618 375.24Z" fill="#00FF94" stroke="black" stroke-width="5" stroke-linecap="round" stroke-linejoin="round"/>
<path d="M349.809 3L287.22 67.2356L353.824 104.811L417.234 41.6036L349.809 3Z" fill="#003D2E" stroke="black" stroke-width="5" stroke-linejoin="round"/>
<path d="M438.853 99.972L376.263 164.208L353.821 104.811L417.233 41.604L438.853 99.972Z" fill="white" stroke="black" stroke-width="5" stroke-linejoin="round"/>
<path d="M308.838 125.605L287.22 67.2358L353.824 104.811L376.264 164.208L308.838 125.605Z" fill="white" stroke="black" stroke-width="5" stroke-linejoin="round"/>
<path d="M312.755 113.561L250.063 177.797L316.77 215.371L380.183 152.267L312.755 113.561Z" fill="#00FF94" stroke="black" stroke-width="5" stroke-linecap="round" stroke-linejoin="round"/>
<path d="M401.703 210.635L339.113 274.871L316.775 215.371L380.183 152.267L401.703 210.635Z" fill="#00FF94" stroke="black" stroke-width="5" stroke-linecap="round" stroke-linejoin="round"/>
<path d="M271.681 236.165L250.063 177.797L316.77 215.371L339.108 274.871L271.681 236.165Z" fill="#00FF94" stroke="black" stroke-width="5" stroke-linecap="round" stroke-linejoin="round"/>
<path d="M554.354 45.4126L491.764 109.546L558.374 147.12L621.784 84.0156L554.354 45.4126Z" fill="#00FF94" stroke="black" stroke-width="5" stroke-linecap="round" stroke-linejoin="round"/>
<path d="M643.403 142.384L580.813 206.621L558.373 147.12L621.783 84.0156L643.403 142.384Z" fill="#00FF94" stroke="black" stroke-width="5" stroke-linecap="round" stroke-linejoin="round"/>
<path d="M513.384 167.914L491.764 109.546L558.374 147.12L580.814 206.621L513.384 167.914Z" fill="#00FF94" stroke="black" stroke-width="5" stroke-linecap="round" stroke-linejoin="round"/>
<path d="M456.974 99.9717L394.384 164.208L460.994 201.782L524.404 138.679L456.974 99.9717Z" fill="white" stroke="black" stroke-width="5" stroke-linejoin="round"/>
<path d="M546.013 197.047L483.323 261.18L460.983 201.782L524.403 138.678L546.013 197.047Z" fill="white" stroke="black" stroke-width="5" stroke-linejoin="round"/>
<path d="M415.904 222.577L394.384 164.208L460.994 201.782L483.324 261.18L415.904 222.577Z" fill="white" stroke="black" stroke-width="5" stroke-linejoin="round"/>
<path d="M228.026 224.944L165.438 289.18L232.042 326.755L295.453 263.651L228.026 224.944Z" fill="#003D2E" stroke="black" stroke-width="5" stroke-linejoin="round"/>
<path d="M317.069 322.019L254.48 386.255L232.039 326.755L295.451 263.651L317.069 322.019Z" fill="white" stroke="black" stroke-width="5" stroke-linejoin="round"/>
<path d="M187.056 347.549L165.438 289.18L232.042 326.755L254.483 386.255L187.056 347.549Z" fill="white" stroke="black" stroke-width="5" stroke-linejoin="round"/>
<path d="M345.689 215.371L282.997 279.607L349.6 317.181L413.113 254.077L345.689 215.371Z" fill="white" stroke="black" stroke-width="5" stroke-linejoin="round"/>
<path d="M434.634 312.446L372.044 376.579L349.599 317.181L413.114 254.077L434.634 312.446Z" fill="white" stroke="black" stroke-width="5" stroke-linejoin="round"/>
<path d="M304.614 337.975L282.997 279.607L349.6 317.181L372.043 376.579L304.614 337.975Z" fill="white" stroke="black" stroke-width="5" stroke-linejoin="round"/>
<path d="M188.502 19.3677L125.81 83.6037L192.517 121.178L255.929 58.0747L188.502 19.3677Z" fill="#00FF94" stroke="black" stroke-width="5" stroke-linecap="round" stroke-linejoin="round"/>
<path d="M277.449 116.34L214.859 180.576L192.521 121.178L255.934 58.0747L277.449 116.34Z" fill="#00FF94" stroke="black" stroke-width="5" stroke-linecap="round" stroke-linejoin="round"/>
<path d="M147.428 141.973L125.81 83.6035L192.517 121.178L214.855 180.576L147.428 141.973Z" fill="#00FF94" stroke="black" stroke-width="5" stroke-linecap="round" stroke-linejoin="round"/>
<path d="M295.563 413.432L232.974 477.668L299.578 515.242L362.991 452.036L295.563 413.432Z" fill="#00FF94" stroke="black" stroke-width="5" stroke-linecap="round" stroke-linejoin="round"/>
<path d="M384.603 510.404L322.016 574.64L299.575 515.242L362.987 452.036L384.603 510.404Z" fill="#00FF94" stroke="black" stroke-width="5" stroke-linecap="round" stroke-linejoin="round"/>
<path d="M254.592 536.037L232.974 477.668L299.578 515.242L322.019 574.64L254.592 536.037Z" fill="#00FF94" stroke="black" stroke-width="5" stroke-linecap="round" stroke-linejoin="round"/>
<path d="M188.502 339.005L125.81 403.241L192.517 440.815L255.929 377.711L188.502 339.005Z" fill="white" stroke="black" stroke-width="5" stroke-linejoin="round"/>
<path d="M277.449 436.079L214.859 500.316L192.521 440.815L255.934 377.711L277.449 436.079Z" fill="white" stroke="black" stroke-width="5" stroke-linejoin="round"/>
<path d="M147.428 461.609L125.81 403.241L192.517 440.815L214.855 500.316L147.428 461.609Z" fill="white" stroke="black" stroke-width="5" stroke-linejoin="round"/>
<path d="M219.794 498.772L157.205 563.008L223.808 600.582L287.221 537.478L219.794 498.772Z" fill="#00FF94" stroke="black" stroke-width="5" stroke-linecap="round" stroke-linejoin="round"/>
<path d="M308.838 595.846L246.146 660.082L223.807 600.582L287.22 537.478L308.838 595.846Z" fill="#00FF94" stroke="black" stroke-width="5" stroke-linecap="round" stroke-linejoin="round"/>
<path d="M178.72 621.376L157.205 563.008L223.808 600.582L246.147 660.082L178.72 621.376Z" fill="#00FF94" stroke="black" stroke-width="5" stroke-linecap="round" stroke-linejoin="round"/>
<path d="M259.321 317.901L196.732 382.035L263.336 419.712L326.748 356.505L259.321 317.901Z" fill="#00FF94" stroke="black" stroke-width="5" stroke-linecap="round" stroke-linejoin="round"/>
<path d="M348.365 414.873L285.776 479.109L263.334 419.712L326.747 356.505L348.365 414.873Z" fill="#00FF94" stroke="black" stroke-width="5" stroke-linecap="round" stroke-linejoin="round"/>
<path d="M218.35 440.403L196.732 382.035L263.336 419.712L285.777 479.109L218.35 440.403Z" fill="#00FF94" stroke="black" stroke-width="5" stroke-linecap="round" stroke-linejoin="round"/>
<path d="M402.724 449.668L340.138 513.904L406.744 551.478L470.154 488.271L402.724 449.668Z" fill="white" stroke="black" stroke-width="5" stroke-linejoin="round"/>
<path d="M491.773 546.64L429.073 610.876L406.743 551.478L470.153 488.271L491.773 546.64Z" fill="white" stroke="black" stroke-width="5" stroke-linejoin="round"/>
<path d="M361.756 572.272L340.138 513.904L406.744 551.478L429.084 610.876L361.756 572.272Z" fill="white" stroke="black" stroke-width="5" stroke-linejoin="round"/>
<path d="M517.293 188.503L454.604 252.739L521.313 290.313L584.724 227.106L517.293 188.503Z" fill="#003D2E" stroke="black" stroke-width="5" stroke-linejoin="round"/>
<path d="M606.244 285.475L543.654 349.711L521.313 290.313L584.724 227.106L606.244 285.475Z" fill="white" stroke="black" stroke-width="5" stroke-linejoin="round"/>
<path d="M476.224 311.107L454.604 252.739L521.313 290.313L543.644 349.711L476.224 311.107Z" fill="white" stroke="black" stroke-width="5" stroke-linejoin="round"/>
<path d="M430.623 274.872L368.036 339.005L434.643 376.579L498.053 313.475L430.623 274.872Z" fill="#00FF94" stroke="black" stroke-width="5" stroke-linecap="round" stroke-linejoin="round"/>
<path d="M519.664 371.843L457.084 436.079L434.634 376.579L498.054 313.475L519.664 371.843Z" fill="#00FF94" stroke="black" stroke-width="5" stroke-linecap="round" stroke-linejoin="round"/>
<path d="M389.653 397.373L368.036 339.005L434.643 376.579L457.083 436.079L389.653 397.373Z" fill="#00FF94" stroke="black" stroke-width="5" stroke-linecap="round" stroke-linejoin="round"/>
<path d="M354.859 349.711L292.166 413.947L358.873 451.521L422.284 388.314L354.859 349.711Z" fill="white" stroke="black" stroke-width="5" stroke-linejoin="round"/>
<path d="M443.904 446.683L381.214 510.919L358.878 451.521L422.294 388.314L443.904 446.683Z" fill="white" stroke="black" stroke-width="5" stroke-linejoin="round"/>
<path d="M313.784 472.315L292.166 413.947L358.873 451.521L381.214 510.919L313.784 472.315Z" fill="white" stroke="black" stroke-width="5" stroke-linejoin="round"/>
</svg>
