<svg width="294" height="355" viewBox="0 0 294 355" fill="none" xmlns="http://www.w3.org/2000/svg">
<path d="M125.256 310.933C107.267 315.552 80.6162 307.89 68.5452 299.496C71.9685 301.658 75.7106 303.272 79.7262 304.417C88.589 307.066 98.7605 307.112 110.018 304.401C110.377 304.321 110.856 304.215 111.215 304.135C163.821 290.649 219.526 221.13 235.586 148.747C235.791 147.681 235.996 146.615 236.2 145.55C236.371 144.901 236.468 144.199 236.564 143.498C236.61 143.419 236.655 143.341 236.627 143.212C245.276 98.7255 236.288 64.1473 214.918 48.8515C212.4 47.1004 209.794 45.5015 206.958 44.2959C238.916 53.5651 262.006 99.4815 249.462 155.651C233.373 227.904 177.623 297.502 125.09 311.039L125.256 310.933Z" fill="#E6E8EA"/>
<path d="M111.288 304.187C111.288 304.187 110.451 304.373 110.093 304.453C98.8344 307.165 88.663 307.119 79.8001 304.47C75.785 303.324 72.0424 301.71 68.6191 299.549C68.4707 299.446 68.2483 299.291 68.1005 299.188C44.3286 284.085 34.3707 246.529 45.2857 197.797C61.4207 125.465 117.126 55.945 169.657 42.4111C184.088 38.7183 196.696 39.5838 207.15 44.3229C209.942 45.6049 212.596 47.1209 215.115 48.8721C236.435 64.2502 245.472 98.7461 236.82 143.237C236.775 143.315 236.729 143.394 236.757 143.523C236.586 144.173 236.49 144.874 236.394 145.576C236.189 146.641 235.985 147.706 235.78 148.772C219.691 221.026 163.94 290.624 111.408 304.16L111.288 304.187Z" stroke="#003B2F" stroke-width="3" stroke-linecap="round" stroke-linejoin="round"/>
<path d="M124.56 311.77C106.571 316.388 79.9211 308.726 67.8494 300.332C71.2731 302.493 75.0153 304.107 79.0314 305.253C87.8937 307.901 98.0647 307.948 109.323 305.236C109.682 305.156 110.16 305.05 110.519 304.97C163.125 291.485 218.831 221.965 234.891 149.582C235.096 148.516 235.3 147.451 235.505 146.386C235.676 145.736 235.772 145.035 235.868 144.333C235.914 144.255 235.96 144.176 235.931 144.047C244.58 99.5607 235.592 64.9825 214.223 49.6867C211.705 47.936 209.098 46.3367 206.263 45.1311C238.22 54.4003 261.307 100.324 248.767 156.486C232.678 228.74 176.927 298.338 124.395 311.874L124.56 311.77Z" fill="#03FC9D" stroke="#003B2F" stroke-width="3" stroke-linecap="round" stroke-linejoin="round"/>
<path d="M110.566 304.89C110.566 304.89 109.728 305.077 109.37 305.157C98.112 307.868 87.9406 307.822 79.0777 305.173C75.0626 304.027 71.32 302.414 67.896 300.252C67.7482 300.149 67.5259 299.995 67.3781 299.892C43.6062 284.789 33.6483 247.233 44.5632 198.5C60.6983 126.168 116.404 56.6486 168.936 43.1119C183.367 39.4191 195.975 40.2846 206.425 45.0305C209.217 46.3125 211.871 47.8286 214.389 49.5793C235.715 64.9509 244.747 99.4538 236.098 143.941C236.052 144.019 236.007 144.097 236.035 144.227C235.864 144.877 235.768 145.578 235.671 146.279C235.467 147.345 235.262 148.411 235.058 149.476C218.968 221.729 163.217 291.327 110.685 304.864L110.566 304.89Z" stroke="#003B2F" stroke-width="3" stroke-linecap="round" stroke-linejoin="round"/>
<path d="M104.522 146.809C104.535 146.827 104.553 146.836 104.571 146.845C104.924 146.785 105.273 146.802 105.618 146.873L111.518 147.357L116.702 147.775L122.67 148.259L127.724 148.669L133.723 149.157L138.809 149.571L144.74 150.059L149.111 150.409C149.263 150.418 149.45 150.354 149.554 150.551C149.554 150.596 149.545 150.636 149.532 150.685C149.465 150.842 149.381 150.99 149.287 151.133C141.922 164.938 134.551 178.751 127.177 192.574C127.101 192.793 126.959 192.99 126.78 193.125C126.105 191.741 125.422 190.352 124.747 188.967L107.505 153.191L104.446 146.872L104.522 146.809Z" fill="#03FC9D"/>
<path d="M126.785 193.128L149.376 150.809C149.425 150.711 149.483 150.616 149.532 150.518C149.576 150.361 149.639 150.213 149.728 150.079C158.254 134.093 166.79 118.112 175.321 102.117C175.423 101.933 175.445 101.665 175.731 101.651C175.714 103.574 175.707 105.501 175.685 107.433L174.818 190.645C174.814 190.832 174.806 191.007 174.793 191.19C174.587 191.177 174.515 190.985 174.421 190.838L172.498 187.74L168.714 181.62L164.944 175.54C163.677 173.482 162.397 171.428 161.116 169.375L157.4 163.388L153.55 157.201L149.838 151.206L149.726 151.027C149.623 150.853 149.52 150.835 149.404 151.046C149.342 151.171 149.275 151.283 149.213 151.409C141.896 165.115 134.584 178.834 127.267 192.54C127.191 192.782 127.049 192.979 126.857 193.118C126.848 193.159 126.826 193.181 126.785 193.128Z" fill="#03FC9D"/>
<path d="M126.874 193.116C128.684 189.716 130.499 186.33 132.305 182.939C137.976 172.302 143.656 161.668 149.332 151.021C149.581 150.564 149.581 150.564 149.846 150.997L154.222 158.015C155.184 159.564 156.141 161.122 157.102 162.671L161.299 169.398L163.68 173.26L167.122 178.786L169.503 182.648L172.869 188.058L174.711 191.027C174.742 191.076 174.778 191.116 174.814 191.156C174.716 191.331 174.577 191.251 174.466 191.251L150.39 192.207L127.46 193.105C127.268 193.155 127.062 193.142 126.883 193.076L126.874 193.116Z" fill="#03FC9D"/>
<path d="M120.214 205.562L130.257 205.166L158.692 204.064L167.694 203.721C167.796 203.716 167.913 203.662 168.007 203.764C167.944 203.89 167.819 203.895 167.726 203.948C146.074 215.541 124.426 227.124 102.77 238.703C102.649 238.766 102.538 238.945 102.377 238.82C102.403 238.61 102.478 238.413 102.581 238.229C108.31 227.497 114.039 216.765 119.759 206.029C119.874 205.841 119.954 205.59 120.214 205.562Z" fill="#03FC9D"/>
<path d="M120.215 205.563C120.081 205.675 119.978 205.836 119.912 206.016C114.156 216.801 108.396 227.596 102.64 238.382C102.556 238.529 102.48 238.682 102.396 238.829C102.276 237.81 102.26 236.786 102.199 235.762C101.685 226.699 101.162 217.63 100.644 208.554L99.1163 181.425L97.8951 159.797L97.8759 159.319C98.0153 159.578 98.1052 159.756 98.1952 159.935L111.329 187.186L120.062 205.309C120.098 205.393 120.152 205.487 120.215 205.563Z" fill="#03FC9D"/>
<path d="M175.714 101.463C167.018 117.767 158.309 134.076 149.613 150.38C149.591 150.424 149.569 150.469 149.547 150.514C147.431 150.346 145.31 150.186 143.195 150.018C140.958 149.846 138.721 149.651 136.48 149.465L124.877 148.529L116.762 147.872L104.743 146.897C104.689 146.892 104.631 146.875 104.586 146.852C105.653 146.165 106.706 145.46 107.791 144.781L135.021 127.417L169.812 105.255L175.544 101.603C175.607 101.567 175.682 101.526 175.749 101.504L175.714 101.463Z" fill="#03FC9D"/>
</svg>
