<svg width="294" height="355" viewBox="0 0 294 355" fill="none" xmlns="http://www.w3.org/2000/svg">
<path d="M125.256 310.933C107.267 315.552 80.6162 307.89 68.5452 299.496C71.9685 301.658 75.7106 303.272 79.7262 304.417C88.589 307.066 98.7605 307.112 110.018 304.401C110.377 304.321 110.856 304.215 111.215 304.135C163.821 290.649 219.526 221.13 235.586 148.747C235.791 147.681 235.996 146.615 236.2 145.55C236.371 144.901 236.468 144.199 236.564 143.498C236.61 143.419 236.655 143.341 236.627 143.212C245.276 98.7255 236.288 64.1473 214.918 48.8515C212.4 47.1004 209.794 45.5015 206.958 44.2959C238.916 53.5651 262.006 99.4815 249.462 155.651C233.373 227.904 177.623 297.502 125.09 311.039L125.256 310.933Z" fill="#E6E8EA"/>
<path d="M111.288 304.187C111.288 304.187 110.451 304.373 110.093 304.453C98.8344 307.165 88.663 307.119 79.8001 304.47C75.785 303.324 72.0424 301.71 68.6191 299.549C68.4707 299.446 68.2483 299.291 68.1005 299.188C44.3286 284.085 34.3707 246.529 45.2857 197.797C61.4207 125.465 117.126 55.945 169.657 42.4111C184.088 38.7183 196.696 39.5838 207.15 44.3229C209.942 45.6049 212.596 47.1209 215.115 48.8721C236.435 64.2502 245.472 98.7461 236.82 143.237C236.775 143.315 236.729 143.394 236.757 143.523C236.586 144.173 236.49 144.874 236.394 145.576C236.189 146.641 235.985 147.706 235.78 148.772C219.691 221.026 163.94 290.624 111.408 304.16L111.288 304.187Z" stroke="#003B2F" stroke-width="3" stroke-linecap="round" stroke-linejoin="round"/>
<path d="M124.56 311.77C106.571 316.388 79.9211 308.726 67.8494 300.332C71.2731 302.493 75.0153 304.107 79.0314 305.253C87.8937 307.901 98.0647 307.948 109.323 305.236C109.682 305.156 110.16 305.05 110.519 304.97C163.125 291.485 218.831 221.965 234.891 149.582C235.096 148.516 235.3 147.451 235.505 146.386C235.676 145.736 235.772 145.035 235.868 144.333C235.914 144.255 235.96 144.176 235.931 144.047C244.58 99.5607 235.592 64.9825 214.223 49.6867C211.705 47.936 209.098 46.3367 206.263 45.1311C238.22 54.4003 261.307 100.324 248.767 156.486C232.678 228.74 176.927 298.338 124.395 311.874L124.56 311.77Z" fill="#03FC9D" stroke="#003B2F" stroke-width="3" stroke-linecap="round" stroke-linejoin="round"/>
<path d="M110.566 304.89C110.566 304.89 109.728 305.077 109.37 305.157C98.112 307.868 87.9406 307.822 79.0777 305.173C75.0626 304.027 71.32 302.414 67.896 300.252C67.7482 300.149 67.5259 299.995 67.3781 299.892C43.6062 284.789 33.6483 247.233 44.5632 198.5C60.6983 126.168 116.404 56.6486 168.936 43.1119C183.367 39.4191 195.975 40.2846 206.425 45.0305C209.217 46.3125 211.871 47.8286 214.389 49.5793C235.715 64.9509 244.747 99.4538 236.098 143.941C236.052 144.019 236.007 144.097 236.035 144.227C235.864 144.877 235.768 145.578 235.671 146.279C235.467 147.345 235.262 148.411 235.058 149.476C218.968 221.729 163.217 291.327 110.685 304.864L110.566 304.89Z" stroke="#003B2F" stroke-width="3" stroke-linecap="round" stroke-linejoin="round"/>
<path d="M208.534 165.601C207.31 167.588 206.53 168.461 205.528 169.353C204.451 170.431 203.338 171.601 201.594 174.35C200.963 175.391 200.406 176.245 200.017 176.951L199.98 177.044C199.312 178.177 198.885 178.975 197.864 180.183C197.011 181.242 195.582 182.932 193.187 184.345C191.219 185.497 187.933 187.523 184.906 186.745C184.627 186.633 184.163 186.448 183.922 186.244C177.418 178.801 171.678 172.954 169.523 171.34C167.07 169.391 169.89 163.41 172.32 158.135C173.47 155.795 174.49 153.51 175.176 151.523C177.55 144.503 179.31 136.591 174.813 130.595C172.137 127.05 167.753 124.545 163.389 122.802C164.373 122.764 165.431 122.541 166.675 122.392C169.869 121.945 173.768 121.348 177.167 122.275C178.226 122.59 179.284 122.905 180.38 123.128C187.084 124.944 192.916 126.52 197.951 130.899C200.273 132.904 204.472 138.027 204.715 141.462C204.958 143.82 205.999 146.067 208.025 150.429C209.159 152.713 209.903 154.087 210.442 155.163C211.278 156.574 211.352 156.927 211.464 157.726C211.689 160.399 210.39 162.573 208.534 165.601Z" fill="#03FC9D"/>
<path d="M167.671 181.907C168.005 182.148 168.006 182.686 167.579 182.947C166.224 183.913 164.46 185.362 162.4 187.016C161.435 187.815 160.469 188.614 159.708 189.171C157.054 191.234 156.034 193.518 155.236 195.246C154.364 197.159 153.938 197.958 152.434 198.218C151.245 198.498 150.15 198.275 143.055 196.626C141.774 196.33 141.235 196.33 140.66 196.423C140.53 196.479 140.344 196.405 140.214 196.461C139.768 196.498 139.545 195.978 139.694 195.607C140.157 194.715 140.64 193.508 141.27 191.929L141.381 191.65C141.901 190.35 142.346 189.236 142.587 188.363C143.162 186.654 143.458 185.911 144.219 185.354C145.148 184.648 145.723 184.555 146.559 184.35C147.84 184.108 149.567 183.828 152.63 181.821C154.338 180.781 154.857 180.019 155.302 179.443C155.507 179.202 155.544 179.109 156.639 178.793C157.735 178.476 161.244 177.509 164.457 179.439C165.497 180.069 166.556 180.923 167.671 181.907Z" fill="#03FC9D"/>
<path d="M128.704 202.093C128.444 202.204 128.314 202.26 128.035 202.149C127.292 201.852 126.902 201.481 126.772 200.998C126.456 199.903 127.216 198.268 127.717 197.284L130.893 197.691C130.448 199.344 129.688 201.517 128.704 202.093Z" fill="#03FC9D"/>
<path d="M132.97 191.952C132.729 192.286 132.543 192.75 132.321 193.308C132.246 193.493 132.172 193.679 132.098 193.865C131.913 194.329 131.616 195.072 131.467 195.443C130.427 195.351 129.685 195.054 128.756 194.683C128.867 194.405 129.053 193.941 129.164 193.662C129.238 193.476 129.349 193.198 129.424 193.012C129.535 192.733 129.609 192.548 129.72 192.269C129.943 191.712 130.277 190.876 130.481 190.634C130.759 190.746 131.075 190.764 131.391 190.783C131.985 190.912 132.895 191.06 133.322 191.339C133.248 191.524 133.137 191.803 132.97 191.952Z" fill="#03FC9D"/>
<path d="M124.023 199.254C123.337 200.703 122.167 202.282 120.663 202.004C119.976 201.837 119.772 201.54 119.66 201.28C119.065 200.074 120.011 197.436 120.846 195.616C121.496 195.876 122.276 196.079 123.279 196.265C123.873 196.394 124.504 196.431 125.006 196.524C124.802 197.304 124.524 198.27 124.023 199.254Z" fill="#03FC9D"/>
<path d="M125.45 193.794L121.94 193.684C122.608 192.551 123.462 190.954 124 189.876C124.389 189.171 124.686 188.966 124.816 188.91C124.816 188.91 124.946 188.855 125.039 188.892C125.039 188.892 125.039 188.892 125.132 188.929L125.225 188.966L127.212 189.652C126.748 190.544 125.932 192.587 125.45 193.794Z" fill="#03FC9D"/>
<path d="M120.806 190.862C120.435 191.252 119.73 192.478 119.266 193.37L115.496 191.756C116.164 190.623 117.017 189.564 117.667 188.747C118.409 187.967 118.985 187.335 119.43 187.298C119.876 187.26 120.749 187.501 121.121 188.188C121.734 189.079 121.586 189.989 120.806 190.862Z" fill="#03FC9D"/>
<path d="M114.703 202.1C114.276 202.36 113.793 202.49 113.422 202.342C112.92 202.249 112.716 201.952 112.511 201.655C111.749 200.059 113.289 196.474 114.086 194.747C115.813 195.006 117.689 195.432 118.562 195.673C118.006 197.066 116.578 200.91 114.703 202.1Z" fill="#03FC9D"/>
<path d="M113.434 190.717C113.063 191.108 112.692 191.498 112.413 191.925C111.875 191.925 110.556 191.183 109.274 190.348L112.614 184.683C114.378 184.849 116.272 185.498 116.458 186.111C116.849 187.02 114.418 189.603 113.434 190.717Z" fill="#03FC9D"/>
<path d="M107.59 200.228C106.476 200.86 105.176 200.879 103.634 200.156C102.52 199.711 102.334 199.098 102.259 198.745C101.98 197.018 104.114 194.102 105.766 192.393L110.855 194.748C110.799 195.157 110.614 195.621 110.429 196.085C109.891 197.701 108.963 199.484 107.59 200.228Z" fill="#03FC9D"/>
<path d="M168.224 173.513C164.007 170.321 167.216 163.635 170.259 157.097C171.279 154.812 172.355 152.658 173.004 150.763C175.117 144.393 176.803 137.205 173.013 132.138C168.925 126.736 159.806 123.955 154.16 122.454C151.987 122.232 149.944 121.955 148.495 121.269C145.412 119.822 143.424 117.52 141.677 115.423C140.377 113.826 139.225 112.397 137.739 111.804C137.646 111.767 137.553 111.729 137.553 111.729C133.263 110.339 130.905 110.581 128.51 111.455C127.897 111.641 126.895 112.533 123.09 116.936C121.123 119.166 120.474 120.521 119.769 121.747C119.101 122.881 118.489 124.144 117.06 125.834C116.076 126.949 115.259 127.915 114.536 128.918C112.55 131.463 110.88 133.488 107.724 135.458C107.334 135.625 106.833 136.071 106.276 136.387C105.515 136.945 104.587 137.651 103.343 138.338C102.489 138.859 100.169 141.163 99.9281 142.035C99.4645 143.466 99.595 144.487 99.6885 145.601C99.7819 146.715 99.9868 148.089 99.4491 149.705L99.3379 149.983C98.5592 152.472 97.7055 153.531 91.523 155.8C87.6056 157.25 84.4682 158.904 82.3334 160.205C82.1663 160.354 82.185 160.577 82.4636 160.688C82.5565 160.725 82.5565 160.725 82.5565 160.725C82.6493 160.762 82.7422 160.799 82.8351 160.836C82.9279 160.874 83.0208 160.911 83.1137 160.948C83.2065 160.985 83.2994 161.022 83.3923 161.059C84.4696 161.597 85.3985 162.506 85.8076 163.639C85.8263 163.862 86.1049 163.973 86.3277 163.954C87.1819 163.973 88.0177 164.306 88.7236 164.696C89.6151 165.16 90.5254 165.846 90.9158 166.756C91.0274 167.016 91.2689 167.22 91.5846 167.239C92.4017 167.35 93.2375 167.683 93.8691 168.259C94.3521 168.667 94.761 169.261 94.947 169.874C95.1143 170.264 95.5415 170.542 95.9872 170.505C96.21 170.486 96.5628 170.411 96.8785 170.43C98.0484 170.466 99.0886 171.097 99.8689 171.84C100.259 172.211 100.686 172.489 101.002 173.046C101.523 173.9 101.783 174.865 101.728 175.813C101.728 176.351 102.304 176.796 102.824 176.573C103.789 176.313 104.384 176.443 104.867 176.851C105.108 177.055 105.22 177.315 105.294 177.668C105.424 178.15 105.74 178.707 106.186 178.67C107.95 178.836 109.696 179.857 110.793 181.156C111.146 181.62 111.554 182.214 111.61 182.882L111.722 182.604C111.759 182.511 111.889 182.455 112.019 182.399L112.334 182.418C113.189 182.436 117.534 182.879 118.389 185.052C118.445 185.182 118.538 185.219 118.668 185.163C118.928 185.051 119.188 184.94 119.281 184.977C120.525 184.828 122.234 185.403 122.94 186.869C123.051 187.129 123.46 187.185 123.72 187.073C123.887 186.924 124.017 186.869 124.24 186.85C124.76 186.627 125.354 186.757 125.911 186.979L128.084 187.739C128.641 187.962 130.387 188.444 130.889 188.536L130.981 188.573C131.167 188.648 131.483 188.666 131.798 188.684C132.894 188.907 134.213 189.11 134.956 189.946C135.699 190.781 135.198 191.765 134.734 192.657C134.586 193.028 134.345 193.363 134.197 193.734C134.122 193.92 134.048 194.106 133.974 194.291C133.64 195.127 133.343 195.87 133.028 196.39L132.935 196.892C132.935 196.892 132.935 196.892 132.898 196.985C132.843 197.393 133.196 197.857 133.586 197.69C134.514 197.522 135.48 197.262 135.907 197.002L135.944 196.909C135.981 196.816 136.148 196.667 136.389 196.333C136.816 195.534 137.632 194.03 138.93 190.779C139.004 190.594 139.042 190.501 139.079 190.408C139.561 189.201 139.969 188.179 140.21 187.306C140.822 185.505 141.285 184.074 142.77 183.052C144.162 181.993 145.184 181.863 146.242 181.639C147.393 181.453 148.674 181.211 151.403 179.501C152.721 178.628 153 178.201 153.241 177.866C153.797 177.012 154.299 176.566 156.063 176.193C157.511 175.803 161.763 174.594 165.923 177.117C167.298 177.989 169.323 179.659 171.367 181.552C171.459 181.589 171.515 181.719 171.608 181.756L171.701 181.794C173.503 183.482 175.082 185.19 176.179 186.489C176.383 186.786 176.792 186.842 177.181 186.675C177.868 186.303 178.444 186.21 179.057 186.024C179.279 186.005 179.502 185.986 179.632 185.93C179.725 185.968 179.762 185.875 179.762 185.875C180.245 185.744 180.542 185.002 180.152 184.63C175.153 179.081 169.952 174.849 168.224 173.513ZM122.906 157.028C118.898 162.749 106.235 165.876 101.778 164.095L101.685 164.058C101.592 164.021 101.499 163.984 101.499 163.984C101.406 163.947 101.313 163.91 101.258 163.78C101.165 163.743 101.165 163.743 101.072 163.705C100.347 163.093 99.4554 162.091 98.9535 160.921C98.6188 160.141 98.4512 159.213 98.5251 158.489C98.5622 158.396 98.5435 158.173 98.5806 158.08C98.7471 156.855 98.9878 155.443 100.807 153.585C101.011 153.344 101.308 153.139 101.512 152.898C101.549 152.805 101.679 152.749 101.716 152.656C101.92 152.415 102.087 152.266 102.254 152.118C102.496 151.783 102.793 151.579 102.96 151.43C102.997 151.337 103.127 151.281 103.164 151.189C103.739 150.557 103.85 150.278 104.055 150.037C104.129 149.851 104.37 149.517 104.611 149.182C105.372 148.086 105.966 147.139 106.392 146.34C107.209 144.836 108.044 143.554 109.399 142.588C109.659 142.476 109.826 142.328 110.086 142.216C110.216 142.16 110.216 142.16 110.346 142.104C110.476 142.049 110.476 142.049 110.606 141.993C110.865 141.881 111.181 141.9 111.404 141.881C111.497 141.918 111.627 141.862 111.72 141.899C111.942 141.881 112.128 141.955 112.351 141.936C113.261 142.084 114.19 142.455 115.267 142.993C116.437 143.568 117.477 144.199 118.295 144.849C119.056 145.368 119.688 145.944 120.134 146.445C120.227 146.482 120.19 146.575 120.283 146.612C120.338 146.742 120.431 146.779 120.58 146.946C120.729 147.113 120.821 147.15 120.97 147.317C121.119 147.484 121.267 147.651 121.416 147.818L121.565 147.985C122.103 148.524 122.605 149.155 122.921 149.712C123.125 150.009 123.237 150.268 123.349 150.528C123.404 150.658 123.497 150.695 123.46 150.788C123.516 150.918 123.516 150.918 123.572 151.048C124.854 153.499 123.834 155.783 122.906 157.028ZM137.156 134.83L136.525 135.87C135.023 138.285 132.592 141.406 128.506 140.851C124.55 140.24 123.64 140.092 121.059 139.276C120.966 139.239 120.966 139.239 120.873 139.202C119.016 138.46 115.876 135.807 116.376 132.668C116.746 130.662 118.138 129.603 120.329 127.894C120.663 127.596 121.09 127.336 121.554 126.983C124.635 124.66 126.176 122.691 127.438 121.149C128.699 119.607 129.72 118.4 131.41 117.675C131.799 117.507 132.189 117.34 132.635 117.303C132.895 117.191 133.211 117.21 133.563 117.135C134.009 117.098 134.418 117.153 134.863 117.116C135.81 117.171 136.776 117.449 137.612 117.783C139.376 118.488 140.955 119.657 141.755 121.161C142.126 121.847 142.628 123.017 142.017 125.896C141.646 127.363 140.273 129.722 137.156 134.83ZM160.842 152.905C158.651 154.614 157.519 155.562 156.034 156.046C153.063 157.013 150.407 156.383 148.271 155.53C146.786 154.936 145.597 154.138 144.798 153.711C142.718 152.45 139.021 150.112 138.926 146.305C138.907 145.544 139.056 145.172 139.278 144.615C139.464 144.151 139.835 143.222 140.335 141.161L140.372 141.068C140.65 140.102 140.965 139.043 141.67 137.818L141.744 137.632C144.045 134.028 144.546 133.582 144.788 133.248C145.456 132.653 146.533 132.653 147.183 133.451C147.778 134.119 147.685 135.159 147.11 135.791C146.943 135.939 146.423 136.701 144.549 139.506L144.475 139.692C143.956 140.453 143.789 141.14 143.548 142.013L143.511 142.106C142.899 144.446 142.528 145.375 142.306 145.932C142.269 146.025 142.232 146.118 142.194 146.211L142.157 146.304C142.176 147.065 142.585 147.659 143.087 148.29C143.477 148.661 144.09 148.475 144.182 147.974C144.905 144.278 146.5 140.285 148.801 138.297C149.599 137.646 150.862 136.643 152.124 135.64C152.254 135.584 152.421 135.435 152.458 135.342C152.588 135.287 152.625 135.194 152.755 135.138C153.349 134.729 153.813 134.376 154.277 134.023C154.314 133.93 154.407 133.967 154.444 133.874L154.574 133.819C154.704 133.763 154.741 133.67 154.871 133.614C154.871 133.614 154.908 133.521 155.001 133.558L155.131 133.503C155.168 133.41 155.261 133.447 155.298 133.354C155.725 133.094 156.152 132.834 156.486 132.536C157.043 132.22 156.801 131.478 156.263 131.478C154.74 131.516 153.645 131.832 153.422 131.851C152.549 132.148 151.565 131.647 151.304 130.682C151.007 129.809 151.508 128.825 152.473 128.564C153.568 128.248 159.064 126.89 163.616 130.323C166.922 132.828 167.63 136.449 167.965 137.767C168.188 138.825 169.007 142.167 167.43 145.845C166.355 148.538 164.424 150.136 160.842 152.905Z" fill="#03FC9D"/>
<path d="M135.199 120.588C134.661 121.127 134.086 121.759 133.38 122.446C131.858 124.1 130.04 125.958 129.241 126.608C127.942 127.704 127.014 128.41 126.29 128.875C125.399 129.488 124.768 129.99 124.025 130.77C122.838 132.126 122.04 133.854 121.633 135.952C120.648 135.451 119.329 134.171 119.514 133.168C119.681 132.481 120.312 131.979 122.205 130.474C122.54 130.177 123.004 129.824 123.431 129.563C126.716 126.999 128.553 124.826 129.852 123.191C131.281 121.5 131.894 120.776 133.212 120.441C133.973 120.422 134.605 120.459 135.199 120.588Z" fill="#03FC9D"/>
<path d="M105.207 190.016C103.203 191.8 101.087 193.323 99.8428 194.011C99.8417 191.857 100.378 187.01 102.122 183.722C102.159 183.63 102.196 183.537 102.233 183.444C102.771 182.367 103.42 181.549 104.311 180.936C104.905 180.527 105.945 180.619 106.967 181.027C107.71 181.324 108.471 181.844 109.066 182.512C109.363 182.846 109.735 183.533 109.253 184.74C108.771 186.486 107.045 188.381 105.207 190.016Z" fill="#03FC9D"/>
<path d="M174.546 188.96C174.602 189.09 174.564 189.182 174.527 189.275C173.989 189.814 173.339 190.093 172.652 190.465C171.836 190.892 170.889 191.375 169.849 192.36C168.346 193.698 167.474 195.073 165.823 198.936C163.82 203.412 163.004 205.994 162.448 207.925C161.836 209.727 161.484 210.878 160.501 212.531C158.441 215.801 156.028 217.529 152.891 219.722C148.992 222.472 145.057 225.315 140.489 224.89C140.08 224.835 140.08 224.835 138.966 224.39C138.037 224.019 136.459 223.388 133.543 222.331C128.082 220.366 125.352 219.383 122.938 218.957C120.338 218.457 118.908 218.532 117.422 218.477C116.122 218.496 114.952 218.46 112.817 218.145C111.498 217.941 109.66 217.422 103.586 215.104C97.2713 212.582 93.4638 211.061 88.7644 208.538C82.189 205.051 78.9384 203.214 77.099 201.079C72.8625 196.049 72.618 189.921 72.3158 179.894C72.3529 179.801 72.4829 179.745 72.5757 179.782C72.7244 179.949 72.873 180.116 73.0217 180.283C73.1703 180.45 73.356 180.525 73.4489 180.562C73.7833 180.803 74.1547 180.951 74.5633 181.007C74.6562 181.044 74.6562 181.044 74.7861 180.988C74.879 181.025 74.9719 181.062 74.9348 181.155C74.9537 181.917 75.1026 182.622 75.6043 183.253C76.106 183.884 76.849 184.181 77.499 184.441C78.242 184.737 79.022 184.941 79.802 185.145C80.1735 185.294 80.4708 185.628 80.5452 185.98C80.5276 187.912 80.9183 189.36 82.1443 190.065C82.2371 190.102 82.33 190.139 82.4229 190.176C82.7015 190.287 83.2029 190.38 83.9085 190.231C84.5212 190.045 85.1528 190.62 85.3388 191.233C85.432 191.809 85.6922 192.236 85.9523 192.663C86.7332 194.482 89.631 196.393 92.2313 197.432C93.6243 197.988 94.9986 198.322 95.8899 198.247C97.2268 198.135 97.5236 197.392 97.5791 196.984C97.7088 196.389 97.8755 195.702 98.0052 195.108C98.0423 195.015 98.1352 195.052 98.0981 195.145C98.1355 195.591 98.1728 196.036 98.6001 196.315C98.6929 196.352 98.6929 196.352 98.7858 196.389C99.5287 196.685 100.532 197.409 100.458 198.133C100.402 198.542 100.477 198.895 100.514 199.34C100.719 200.176 101.221 201.346 102.948 202.143L103.041 202.18C105.084 202.996 106.923 202.977 108.463 202.085C108.593 202.029 108.63 201.936 108.76 201.88C109.354 201.471 110.469 201.916 110.748 202.566C111.119 203.253 111.658 203.791 112.401 204.088C112.494 204.125 112.68 204.199 112.773 204.236C113.738 204.515 114.667 204.347 115.651 203.771C116.245 203.362 116.783 202.823 117.265 202.154C117.432 202.006 117.748 202.024 117.86 202.284C118.083 202.804 118.584 203.435 119.513 203.806C119.699 203.88 119.977 203.991 120.293 204.01C122.206 204.343 123.728 203.228 124.73 201.798C124.767 201.705 124.86 201.742 124.823 201.835C125.065 202.578 125.641 203.561 127.034 204.118C127.127 204.155 127.22 204.192 127.22 204.192C127.963 204.489 128.761 204.377 129.448 204.005C130.302 203.485 130.933 202.445 131.434 201.46C131.545 201.182 131.842 200.977 132.288 200.94C134.033 200.883 136.447 200.232 137.375 199.526C137.375 199.526 137.412 199.433 137.505 199.47C137.709 199.229 138.062 199.154 138.247 199.228C139.529 199.525 140.105 199.432 140.643 199.431C141.089 199.394 141.404 199.412 142.407 199.598C149.595 201.284 151.006 201.525 152.863 201.189C155.685 200.594 156.594 198.588 157.466 196.675C158.226 195.04 159.061 193.22 161.251 191.51C162.049 190.86 162.978 190.154 163.98 189.262C165.743 187.813 168.175 185.769 169.753 184.784C170.05 184.579 170.458 184.635 170.663 184.932C172.65 186.695 174.323 188.44 174.546 188.96Z" fill="#03FC9D"/>
<path d="M100.524 182.869C99.3185 185.079 97.8716 188.163 96.611 192.397C96.2588 193.549 95.9623 194.83 95.6659 196.112C95.3131 196.186 94.1803 196.057 92.5458 195.296C90.1683 194.239 87.9764 192.717 87.5673 191.585L87.5115 191.455C87.1397 190.768 86.8238 190.211 87.1576 189.375C87.2689 189.097 87.473 188.855 87.9371 188.502C88.197 188.39 88.494 188.186 88.8281 187.889C89.4221 187.48 90.239 187.052 91.1671 186.346C93.7844 184.377 94.6754 183.763 95.8264 183.039C95.9563 182.983 95.9934 182.89 96.1234 182.834C96.8103 182.462 97.5713 181.905 98.8893 181.032C99.7803 180.418 100.541 179.861 101.228 179.489C102.249 178.82 102.899 178.541 103.289 178.374C103.141 178.745 102.825 179.265 102.51 179.786C101.693 180.752 101.099 181.699 100.524 182.869Z" fill="#03FC9D"/>
<path d="M113.931 145.798C113.894 145.89 113.894 145.89 113.931 145.798C113.374 146.114 112.78 146.522 111.945 147.266C109.699 149.384 109.106 150.87 108.624 152.077C108.364 152.727 108.178 153.191 107.77 153.674C107.529 154.009 107.158 154.399 106.694 154.752C105.413 156.071 103.668 157.743 102.927 160.677C102.481 160.176 101.905 159.192 101.83 158.84C101.905 158.654 101.849 158.524 101.923 158.338C102.071 157.428 102.201 156.834 103.184 155.719C106.006 152.969 106.525 152.208 106.989 151.316C107.063 151.131 107.23 150.982 107.342 150.703C108.139 149.514 108.77 148.474 109.234 147.583C109.976 146.264 110.533 145.409 111.257 144.945C111.554 144.74 112.055 144.833 112.705 145.093C112.984 145.204 113.262 145.315 113.597 145.556L113.69 145.593C113.931 145.798 113.931 145.798 113.931 145.798Z" fill="#03FC9D"/>
<path d="M98.8322 178.209C99.0731 177.336 99.277 176.556 99.2394 175.572C99.2394 175.572 99.2207 175.349 99.2578 175.256C99.202 175.126 99.2391 175.033 99.1833 174.903L99.1276 174.774C99.0718 174.644 99.0718 174.644 98.9789 174.606L98.9231 174.476C98.8303 174.439 98.8674 174.347 98.7745 174.309L98.6816 174.272C98.2915 173.901 97.9013 173.53 97.3812 173.215C97.2884 173.177 97.1955 173.14 97.1955 173.14C97.1026 173.103 97.1026 173.103 97.0098 173.066L96.9169 173.029C96.824 172.992 96.6941 173.048 96.5083 172.974C96.4155 172.936 96.3784 173.029 96.2855 172.992L96.1555 173.048C96.0256 173.104 96.0256 173.104 95.8956 173.16L95.7657 173.215L95.7286 173.308C95.4316 173.513 95.1346 173.717 94.8376 173.921C94.1136 174.386 93.3525 174.944 92.6285 175.408C91.9046 175.873 91.3105 176.282 90.5866 176.746C90.1596 177.006 89.8626 177.211 89.4356 177.471C89.3985 177.564 89.3057 177.527 89.2686 177.62C89.5101 177.824 89.7887 177.935 90.0302 178.139C90.6432 178.492 91.2561 178.844 91.7762 179.16C93.0022 179.865 94.3581 180.514 95.6953 180.94C95.7882 180.977 95.7882 180.977 95.8811 181.015C96.3451 180.661 97.032 180.29 97.7931 179.732C98.22 179.472 98.647 179.212 98.9811 178.915C98.7396 178.71 98.758 178.395 98.8322 178.209Z" fill="#03FC9D"/>
<path d="M91.9077 181.796C91.4068 182.781 89.2538 184.936 86.4879 186.739C84.186 188.188 83.0348 188.375 82.849 188.3C82.1432 187.911 82.1979 185.887 82.3454 183.9C82.4564 183.083 82.4375 182.321 82.6043 181.634C82.7521 180.186 83.401 178.291 83.939 177.214C85.091 178.643 87.6171 179.867 91.3318 181.351C91.4804 181.518 91.759 181.629 91.9077 181.796Z" fill="#03FC9D"/>
<path d="M92.6456 172.4C91.5875 173.162 90.5666 173.831 89.5456 174.5C88.9887 174.816 88.5246 175.169 87.9677 175.485C87.6707 175.689 87.2808 175.857 86.9838 176.061C86.4637 175.746 86.0735 175.374 85.5534 175.059C85.1262 174.781 84.8289 174.447 84.4387 174.075C84.3459 174.038 84.2901 173.908 84.1972 173.871C84.1415 173.741 84.1228 173.518 84.067 173.388C84.364 173.184 84.6052 172.85 84.9023 172.645C85.4034 172.199 85.9046 171.753 86.4986 171.345C87.4267 170.638 88.4848 169.877 89.7659 169.635C89.8588 169.672 89.8959 169.579 89.9888 169.616C90.4344 169.578 90.8801 169.541 91.3815 169.634C91.4744 169.671 91.753 169.782 91.9387 169.856L92.0316 169.893C92.0316 169.893 92.0316 169.893 92.1244 169.93C92.2173 169.968 92.2731 170.097 92.4588 170.172C92.4588 170.172 92.5517 170.209 92.5146 170.302C92.5703 170.432 92.6632 170.469 92.719 170.599C92.5703 170.432 92.7934 170.951 92.8305 170.859C92.7937 171.49 92.7753 171.806 92.6456 172.4Z" fill="#03FC9D"/>
<path d="M88.7063 167.704C87.1281 168.15 85.7731 169.117 84.5666 170.25C83.8984 170.845 83.2302 171.439 82.562 172.034C82.5249 172.127 82.395 172.182 82.395 172.182C82.0606 171.941 81.7262 171.7 81.4847 171.496C81.1503 171.254 80.853 170.92 80.5187 170.679C80.37 170.512 80.3143 170.382 80.1656 170.215C80.7967 169.713 81.4278 169.212 82.1518 168.747C83.0428 168.134 84.0638 167.465 85.0106 166.982C85.4005 166.814 85.8275 166.554 86.1802 166.48C86.6259 166.442 86.9974 166.591 87.4246 166.869C87.8889 167.054 88.3533 167.24 88.6505 167.574C88.5577 167.537 88.6135 167.667 88.7063 167.704Z" fill="#03FC9D"/>
<path d="M80.5435 182.749C80.4135 182.805 80.4135 182.805 80.2836 182.861L80.1907 182.824C79.9121 182.712 79.5964 182.694 79.3178 182.583C78.7606 182.36 78.1663 182.231 77.6462 181.915C77.3676 181.804 77.1261 181.6 77.0146 181.34C76.9401 180.987 77.0698 180.393 77.1253 179.984C77.5698 177.793 78.3859 175.75 79.3876 173.781C80.2608 174.56 81.2639 175.284 82.3041 175.915C81.2837 177.661 80.6724 180.539 80.5614 181.357C80.6916 181.839 80.599 182.341 80.5435 182.749Z" fill="#03FC9D"/>
<path d="M83.7655 164.977C82.3917 165.72 81.0737 166.594 79.8115 167.597C79.3474 167.95 78.7534 168.359 78.2523 168.805C77.9179 168.564 77.6206 168.229 77.4162 167.932C77.2118 167.635 77.0074 167.338 76.8958 167.079C76.8401 166.949 76.6914 166.782 76.6356 166.652C76.6356 166.652 76.5428 166.614 76.5799 166.522C76.784 166.28 77.0439 166.169 77.1181 165.983C77.4893 165.593 77.8234 165.295 78.2504 165.035C79.0114 164.478 79.7725 163.92 80.6264 163.4C80.9234 163.195 81.2205 162.991 81.629 163.047C81.9447 163.065 82.2791 163.306 82.5577 163.417C83.0778 163.733 83.4866 164.327 83.7655 164.977Z" fill="#03FC9D"/>
<path d="M74.6489 167.042C74.7789 166.987 74.686 166.95 74.6489 167.042C74.872 167.562 75.0393 167.952 75.2995 168.379C75.4482 168.546 75.4669 168.769 75.6155 168.936C75.6155 168.936 75.6155 168.936 75.5784 169.029C74.5764 170.459 73.6301 172.02 72.9625 173.691C72.9254 173.784 72.8325 173.747 72.8696 173.654C73.1842 171.518 73.8881 168.138 74.6489 167.042Z" fill="#03FC9D"/>
<path d="M77.827 172.296C77.0849 173.615 76.4356 174.971 75.9721 176.401C75.6754 177.144 75.4715 177.924 75.2305 178.797C75.0448 178.722 74.8591 178.648 74.6733 178.574L74.5805 178.537L74.4876 178.5C74.339 178.333 74.339 178.333 74.1903 178.166C74.0417 177.999 73.9672 177.646 73.8928 177.293C73.7809 176.495 73.9848 175.715 74.2815 174.972C74.7451 173.542 75.5243 172.13 76.3592 170.848C76.5079 171.015 76.7494 171.22 76.9909 171.424C77.2882 171.758 77.4926 172.055 77.827 172.296Z" fill="#03FC9D"/>
</svg>
