<svg width="294" height="355" viewBox="0 0 294 355" fill="none" xmlns="http://www.w3.org/2000/svg">
<path d="M125.255 310.933C107.266 315.552 80.6161 307.89 68.545 299.496C71.9684 301.658 75.7105 303.272 79.7261 304.417C88.5889 307.066 98.7603 307.112 110.018 304.401C110.377 304.321 110.856 304.215 111.215 304.135C163.821 290.649 219.526 221.13 235.586 148.747C235.791 147.681 235.996 146.615 236.2 145.55C236.371 144.901 236.468 144.199 236.564 143.498C236.609 143.419 236.655 143.341 236.626 143.212C245.276 98.7255 236.288 64.1473 214.918 48.8515C212.4 47.1004 209.794 45.5015 206.958 44.2959C238.915 53.5651 262.006 99.4815 249.462 155.651C233.373 227.904 177.623 297.502 125.09 311.039L125.255 310.933Z" fill="#E6E8EA"/>
<path d="M111.288 304.187C111.288 304.187 110.451 304.373 110.093 304.453C98.8344 307.165 88.663 307.119 79.8001 304.47C75.785 303.324 72.0424 301.71 68.6191 299.549C68.4707 299.446 68.2483 299.291 68.1005 299.188C44.3286 284.085 34.3707 246.529 45.2857 197.797C61.4207 125.465 117.126 55.945 169.657 42.4111C184.088 38.7183 196.696 39.5838 207.15 44.3229C209.942 45.6049 212.596 47.1209 215.115 48.8721C236.435 64.2502 245.472 98.7461 236.82 143.237C236.775 143.315 236.729 143.394 236.757 143.523C236.586 144.173 236.49 144.874 236.394 145.576C236.189 146.641 235.985 147.706 235.78 148.772C219.691 221.026 163.94 290.624 111.408 304.16L111.288 304.187Z" stroke="#003B2F" stroke-width="3" stroke-linecap="round" stroke-linejoin="round"/>
<path d="M124.561 311.77C106.571 316.388 79.9212 308.726 67.8495 300.332C71.2732 302.493 75.0154 304.107 79.0316 305.253C87.8938 307.901 98.0648 307.948 109.323 305.236C109.682 305.156 110.161 305.05 110.52 304.97C163.125 291.485 218.831 221.965 234.891 149.582C235.096 148.516 235.3 147.451 235.505 146.386C235.676 145.736 235.772 145.035 235.868 144.333C235.914 144.255 235.96 144.176 235.931 144.047C244.58 99.5607 235.592 64.9825 214.223 49.6867C211.705 47.936 209.098 46.3367 206.263 45.1311C238.22 54.4003 261.307 100.324 248.767 156.486C232.678 228.74 176.927 298.338 124.395 311.874L124.561 311.77Z" fill="#03FC9D" stroke="#003B2F" stroke-width="3" stroke-linecap="round" stroke-linejoin="round"/>
<path d="M110.566 304.89C110.566 304.89 109.728 305.077 109.37 305.157C98.112 307.868 87.9406 307.822 79.0777 305.173C75.0626 304.027 71.32 302.414 67.896 300.252C67.7482 300.149 67.5259 299.995 67.3781 299.892C43.6062 284.789 33.6483 247.233 44.5632 198.5C60.6983 126.168 116.404 56.6486 168.936 43.1119C183.367 39.4191 195.975 40.2846 206.425 45.0305C209.217 46.3125 211.871 47.8286 214.389 49.5793C235.715 64.9509 244.747 99.4538 236.098 143.941C236.052 144.019 236.007 144.097 236.035 144.227C235.864 144.877 235.768 145.578 235.671 146.279C235.467 147.345 235.262 148.411 235.058 149.476C218.968 221.729 163.217 291.327 110.685 304.864L110.566 304.89Z" stroke="#003B2F" stroke-width="3" stroke-linecap="round" stroke-linejoin="round"/>
<path d="M181.004 176.609C183.165 172.107 186.401 168.824 190.181 167.084L137.51 107.339C135.575 105.144 132.746 105.18 131.162 108.019L122.925 122.781C121.499 125.336 121.952 129.558 123.887 131.753L176.558 191.498C176.682 185.613 178.413 180.623 181.004 176.609Z" fill="#03FC9D"/>
<path d="M100.918 137.685C98.7567 142.187 95.5206 145.47 91.7415 147.21L144.412 206.955C146.347 209.15 149.176 209.114 150.76 206.275L158.997 191.513C160.423 188.958 159.97 184.736 158.035 182.541L105.364 122.795C105.025 128.437 103.509 133.671 100.918 137.685Z" fill="#03FC9D"/>
<path d="M145.521 240.2C147.682 235.697 150.918 232.415 154.698 230.675L102.027 170.93C100.092 168.735 97.2632 168.771 95.6792 171.61L87.4421 186.372C86.0164 188.927 86.4691 193.149 88.4039 195.344L141.075 255.089C141.199 249.204 142.93 244.214 145.521 240.2Z" fill="#03FC9D"/>
</svg>
