<svg width="295" height="356" viewBox="0 0 295 356" fill="none" xmlns="http://www.w3.org/2000/svg">
<path d="M126.254 311.935C108.265 316.554 81.6145 308.891 69.5435 300.498C72.9668 302.659 76.7089 304.273 80.7245 305.418C89.5873 308.068 99.7588 308.113 111.017 305.402C111.376 305.322 111.854 305.216 112.213 305.136C164.819 291.651 220.524 222.132 236.585 149.748C236.789 148.682 236.994 147.617 237.198 146.552C237.369 145.902 237.466 145.2 237.562 144.499C237.608 144.42 237.653 144.342 237.625 144.213C246.274 99.7268 237.286 65.1485 215.916 49.8527C213.398 48.1016 210.792 46.5027 207.957 45.2971C239.914 54.5664 263.004 100.483 250.46 156.652C234.372 228.905 178.621 298.503 126.089 312.04L126.254 311.935Z" fill="#E6E8EA"/>
<path d="M112.286 305.188C112.286 305.188 111.449 305.374 111.091 305.454C99.8327 308.166 89.6613 308.12 80.7984 305.471C76.7833 304.325 73.0407 302.712 69.6174 300.55C69.4689 300.447 69.2466 300.292 69.0988 300.19C45.3269 285.087 35.369 247.53 46.284 198.798C62.419 126.466 118.124 56.9463 170.655 43.4124C185.087 39.7195 197.694 40.585 208.149 45.3241C210.94 46.6061 213.595 48.1222 216.113 49.8733C237.434 65.2514 246.47 99.7473 237.819 144.239C237.773 144.316 237.727 144.395 237.756 144.524C237.585 145.174 237.489 145.875 237.392 146.577C237.187 147.643 236.983 148.708 236.778 149.773C220.689 222.028 164.938 291.625 112.406 305.161L112.286 305.188Z" stroke="#003B2F" stroke-width="3" stroke-linecap="round" stroke-linejoin="round"/>
<path d="M125.559 312.771C107.569 317.389 80.9193 309.727 68.8477 301.333C72.2714 303.494 76.0135 305.108 80.0297 306.254C88.8919 308.903 99.063 308.949 110.321 306.238C110.68 306.158 111.159 306.051 111.518 305.971C164.123 292.487 219.829 222.967 235.889 150.583C236.094 149.517 236.298 148.452 236.503 147.387C236.674 146.737 236.77 146.036 236.867 145.334C236.912 145.256 236.958 145.178 236.929 145.048C245.579 100.562 236.591 65.9837 215.221 50.6879C212.703 48.9372 210.097 47.3379 207.261 46.1323C239.218 55.4015 262.305 101.325 249.766 157.487C233.676 229.741 177.925 299.339 125.393 312.875L125.559 312.771Z" fill="#03FC9D" stroke="#003B2F" stroke-width="3" stroke-linecap="round" stroke-linejoin="round"/>
<path d="M111.564 305.892C111.564 305.892 110.727 306.078 110.369 306.158C99.1103 308.87 88.9389 308.824 80.076 306.174C76.0609 305.029 72.3183 303.415 68.8943 301.253C68.7465 301.15 68.5242 300.996 68.3764 300.893C44.6045 285.79 34.6466 248.234 45.5615 199.501C61.6965 127.17 117.402 57.6498 169.934 44.1132C184.366 40.4203 196.973 41.2858 207.424 46.0318C210.215 47.3137 212.87 48.8298 215.387 50.5805C236.713 65.9521 245.746 100.455 237.096 144.942C237.051 145.02 237.005 145.099 237.033 145.228C236.862 145.878 236.766 146.579 236.67 147.281C236.465 148.346 236.26 149.412 236.056 150.477C219.966 222.731 164.216 292.328 111.683 305.865L111.564 305.892Z" stroke="#003B2F" stroke-width="3" stroke-linecap="round" stroke-linejoin="round"/>
<g clip-path="url(#clip0_802_172)">
<path d="M120.504 133.018L89.4479 186.58C87.4809 189.972 86.8441 193.872 87.8025 196.64L102.934 241.005C103.856 243.838 106.292 245.238 109.215 244.616L155.367 235.483C158.291 234.861 161.327 232.426 163.294 229.034L194.35 175.473C196.316 172.081 196.954 168.181 195.995 165.411L180.863 121.047C179.942 118.214 177.506 116.813 174.581 117.436L128.431 126.569C125.506 127.191 122.47 129.626 120.504 133.018Z" fill="#03FC9D"/>
<path d="M142.6 195.296L127.74 210.9C127.315 211.338 126.982 211.914 126.85 212.435L116.242 247.976L129.376 245.372L144.047 196.043C144.347 194.935 143.45 194.419 142.636 195.231M169.053 169.719C169.391 168.548 168.493 168.032 167.643 168.909L152.784 184.512C152.358 184.95 152.024 185.526 151.893 186.049L134.555 244.254L147.688 241.651L169.117 169.756L169.053 169.719Z" fill="#00261E"/>
<path d="M176.673 121.199C176.673 121.199 177.048 121.585 177.166 121.823L193.499 169.865C193.698 170.406 193.584 171.193 193.213 171.833L159.633 229.746C159.226 230.45 158.635 230.878 158.064 230.977L108.116 240.913C108.116 240.913 107.583 240.948 107.326 240.8C107.07 240.653 106.951 240.415 106.834 240.176L90.5005 192.134C90.3011 191.593 90.416 190.807 90.7869 190.167L124.403 132.189C124.811 131.485 125.402 131.056 125.972 130.958L175.921 121.022C175.921 121.022 176.454 120.987 176.71 121.135M181.608 112.688C180.454 112.025 178.939 111.837 177.395 112.142L127.445 122.078C124.254 122.718 121.005 125.372 118.853 129.085L85.2741 186.997C83.1225 190.708 82.4381 194.837 83.477 197.91L99.8103 245.951C100.28 247.5 101.238 248.648 102.391 249.311C103.545 249.975 105.06 250.163 106.605 249.857L156.554 239.921C159.746 239.281 162.995 236.626 165.146 232.915L198.725 175.003C200.877 171.29 201.561 167.162 200.523 164.09L184.152 116.113C183.582 114.591 182.724 113.415 181.571 112.752" fill="white"/>
<path d="M90.6353 219.174L101.022 208.336L102.66 219.517L92.3536 224.172L90.6353 219.174Z" fill="#03FC9D"/>
<path d="M158.343 146.327L149.945 141.499C149.305 141.131 148.394 141.375 147.681 142.16L86.3312 206.548L90.6336 219.175L158.194 148.204C158.832 147.547 158.893 146.558 158.38 146.263M173.059 154.702L164.662 149.875C164.021 149.505 163.11 149.75 162.398 150.536L92.3249 224.071L96.6273 236.699L172.874 156.643C173.512 155.986 173.572 154.996 173.059 154.702Z" fill="#003B2F"/>
</g>
<defs>
<clipPath id="clip0_802_172">
<rect width="118" height="138" fill="white" transform="translate(83 112)"/>
</clipPath>
</defs>
</svg>
