<svg width="500" height="500" viewBox="0 0 500 500" fill="none" xmlns="http://www.w3.org/2000/svg">
<path d="M270.065 238.951L252.507 289.978L217.963 390.312C207.715 372.897 200.548 358.205 190.372 340.718C173.96 349.031 154.538 354.55 138.126 362.791C155.542 312.338 172.885 261.885 190.228 211.359L227.782 224.259L270.065 238.951Z" fill="#03FC9D" stroke="#003D2E" stroke-width="3" stroke-miterlimit="10"/>
<path d="M362.873 343.585C343.881 336.705 329.046 329.968 310.055 323.017C302.673 339.858 291.278 356.485 283.896 373.327C273.433 345.52 262.97 317.785 252.506 289.978L270.065 238.951L227.781 224.403C227.638 224.116 227.566 223.83 227.423 223.543L306.4 193.801L362.873 343.585Z" fill="#03FC9D" stroke="#003D2E" stroke-width="3" stroke-miterlimit="10"/>
<path d="M243.404 257.657C238.315 257.657 233.944 249.702 229.142 248.914C224.197 248.126 217.532 254.361 212.874 252.784C208.144 251.207 206.424 242.321 202.052 240.099C197.609 237.806 189.367 241.676 185.354 238.737C181.34 235.799 182.487 226.769 178.975 223.257C175.464 219.745 166.434 220.892 163.495 216.879C160.557 212.865 164.427 204.624 162.134 200.18C159.912 195.809 150.954 194.089 149.449 189.359C147.944 184.7 154.107 178.035 153.319 173.09C152.53 168.217 144.575 163.845 144.575 158.829C144.575 153.74 152.53 149.369 153.319 144.567C154.107 139.622 147.872 132.957 149.449 128.299C151.025 123.569 159.912 121.849 162.134 117.477C164.427 113.033 160.557 104.792 163.495 100.778C166.434 96.7651 175.392 97.9118 178.975 94.4001C182.487 90.8884 181.34 81.8584 185.354 78.92C189.367 75.9817 197.609 79.8517 202.052 77.5584C206.424 75.3367 208.144 66.3784 212.874 64.8733C217.532 63.3683 224.197 69.5317 229.142 68.7434C234.015 67.955 238.387 60 243.404 60C248.492 60 252.864 67.955 257.666 68.7434C262.611 69.5317 269.276 63.2967 273.934 64.8733C278.664 66.45 280.384 75.3367 284.756 77.5584C289.199 79.8517 297.441 75.9817 301.454 78.92C305.467 81.8584 304.321 90.8167 307.832 94.4001C311.344 97.9118 320.374 96.7651 323.312 100.778C326.251 104.792 322.381 113.033 324.674 117.477C326.896 121.849 335.854 123.569 337.359 128.299C338.864 132.957 332.701 139.622 333.489 144.567C334.277 149.44 342.232 153.812 342.232 158.829C342.232 163.845 334.277 168.289 333.489 173.09C332.701 178.035 338.936 184.7 337.359 189.359C335.782 194.089 326.896 195.809 324.674 200.18C322.381 204.624 326.251 212.865 323.312 216.879C320.374 220.892 311.416 219.745 307.832 223.257C304.321 226.769 305.467 235.799 301.454 238.737C297.441 241.676 289.199 237.806 284.756 240.099C280.384 242.321 278.664 251.279 273.934 252.784C269.276 254.289 262.611 248.126 257.666 248.914C252.792 249.774 248.42 257.657 243.404 257.657Z" fill="#134649"/>
<path d="M243.404 257.657C238.315 257.657 233.944 249.702 229.142 248.914C224.197 248.126 217.532 254.361 212.874 252.784C208.144 251.207 206.424 242.321 202.052 240.099C197.609 237.806 189.367 241.676 185.354 238.737C181.34 235.799 182.487 226.769 178.975 223.257C175.464 219.745 166.434 220.892 163.495 216.879C160.557 212.865 164.427 204.624 162.134 200.18C159.912 195.809 150.954 194.089 149.449 189.359C147.944 184.7 154.107 178.035 153.319 173.09C152.53 168.217 144.575 163.845 144.575 158.829C144.575 153.74 152.53 149.369 153.319 144.567C154.107 139.622 147.872 132.957 149.449 128.299C151.025 123.569 159.912 121.849 162.134 117.477C164.427 113.033 160.557 104.792 163.495 100.778C166.434 96.7651 175.392 97.9118 178.975 94.4001C182.487 90.8884 181.34 81.8584 185.354 78.92C189.367 75.9817 197.609 79.8517 202.052 77.5584C206.424 75.3367 208.144 66.3784 212.874 64.8733C217.532 63.3683 224.197 69.5317 229.142 68.7434C234.015 67.955 238.387 60 243.404 60C248.492 60 252.864 67.955 257.666 68.7434C262.611 69.5317 269.276 63.2967 273.934 64.8733C278.664 66.45 280.384 75.3367 284.756 77.5584C289.199 79.8517 297.441 75.9817 301.454 78.92C305.467 81.8584 304.321 90.8167 307.832 94.4001C311.344 97.9118 320.374 96.7651 323.312 100.778C326.251 104.792 322.381 113.033 324.674 117.477C326.896 121.849 335.854 123.569 337.359 128.299C338.864 132.957 332.701 139.622 333.489 144.567C334.277 149.44 342.232 153.812 342.232 158.829C342.232 163.845 334.277 168.289 333.489 173.09C332.701 178.035 338.936 184.7 337.359 189.359C335.782 194.089 326.896 195.809 324.674 200.18C322.381 204.624 326.251 212.865 323.312 216.879C320.374 220.892 311.416 219.745 307.832 223.257C304.321 226.769 305.467 235.799 301.454 238.737C297.441 241.676 289.199 237.806 284.756 240.099C280.384 242.321 278.664 251.279 273.934 252.784C269.276 254.289 262.611 248.126 257.666 248.914C252.792 249.774 248.42 257.657 243.404 257.657Z" fill="#134649" stroke="#003D2E" stroke-width="3" stroke-miterlimit="10"/>
<path d="M243.405 226.982C281.006 226.982 311.488 196.5 311.488 158.899C311.488 121.297 281.006 90.8154 243.405 90.8154C205.803 90.8154 175.321 121.297 175.321 158.899C175.321 196.5 205.803 226.982 243.405 226.982Z" fill="#E6E8EA" stroke="#003D2E" stroke-width="3" stroke-miterlimit="10"/>
<path d="M415.5 415.025C415.5 415.48 415.17 416.48 413.143 417.929C411.196 419.321 408.164 420.766 404.02 422.199C395.762 425.055 383.677 427.668 368.578 429.876C338.42 434.287 296.671 437.025 250.5 437.025C204.329 437.025 162.58 434.287 132.422 429.876C117.323 427.668 105.238 425.055 96.9801 422.199C92.8355 420.766 89.804 419.321 87.8568 417.929C85.83 416.48 85.5 415.48 85.5 415.025C85.5 414.57 85.83 413.57 87.8568 412.122C89.804 410.73 92.8355 409.285 96.9801 407.851C105.238 404.996 117.323 402.383 132.422 400.175C162.58 395.764 204.329 393.025 250.5 393.025C296.671 393.025 338.42 395.764 368.578 400.175C383.677 402.383 395.762 404.996 404.02 407.851C408.164 409.285 411.196 410.73 413.143 412.122C415.17 413.57 415.5 414.57 415.5 415.025Z" stroke="#003D2E" stroke-width="5"/>
</svg>
