<svg width="500" height="500" viewBox="0 0 500 500" fill="none" xmlns="http://www.w3.org/2000/svg">
<path d="M52.5645 330.4C54.1155 330.192 94.3018 350.293 107.133 349.115C119.965 347.867 124.759 345.233 137.097 340.45C149.435 335.668 158.388 328.944 199.703 323.607C241.017 318.27 267.032 292.277 267.032 292.277C267.032 292.277 289.029 275.017 303.623 275.087C318.217 275.156 315.82 295.396 310.391 301.218C304.962 307.041 250.464 348.144 250.464 348.144" stroke="#003D2E" stroke-width="5" stroke-miterlimit="10" stroke-linecap="round" stroke-linejoin="round"/>
<path d="M52 427.649C52 427.649 169.668 435.481 178.481 434.58C187.294 433.748 254.553 449.621 261.815 449.621C269.076 449.621 283.529 446.71 300.873 435.897C318.216 425.084 354.032 414.409 361.857 408.864C369.683 403.25 386.251 361.106 386.251 361.106L406.203 305.585C406.203 305.585 409.658 294.633 404.3 292.069C399.012 289.504 376.663 300.04 373.561 315.359L370.811 322.637" stroke="#003D2E" stroke-width="5" stroke-miterlimit="10" stroke-linecap="round" stroke-linejoin="round"/>
<path d="M224.096 326.587C224.096 326.587 241.51 336.014 252.72 356.462C263.859 376.91 275.704 375.87 275.704 375.87L312.506 379.059L344.726 356.808C344.726 356.808 365.594 323.815 374.407 320.072C383.22 316.329 394.5 315.289 392.033 323.329C389.494 331.301 370.247 361.037 368.626 364.295C367.004 367.552 345.924 402.626 334.644 407.686C323.434 412.815 275.069 423.905 275.069 423.905" stroke="#003D2E" stroke-width="5" stroke-miterlimit="10" stroke-linecap="round" stroke-linejoin="round"/>
<path d="M130.962 342.807C130.962 342.807 159.022 336.915 189.127 348.214C219.302 359.443 246.093 376.078 264.776 376.286C283.459 376.494 312.435 379.059 312.435 379.059" stroke="#003D2E" stroke-width="5" stroke-miterlimit="10" stroke-linecap="round" stroke-linejoin="round"/>
<path d="M390.27 349.669C390.27 349.669 411.42 330.053 415.862 328.043C420.304 326.033 435.039 316.467 446.249 323.953C446.249 323.953 451.748 326.587 432.994 343.916C414.241 361.245 394.429 379.683 394.429 379.683L369.683 397.566" stroke="#003D2E" stroke-width="5" stroke-miterlimit="10" stroke-linecap="round" stroke-linejoin="round"/>
<path d="M305.808 433.055C305.808 433.055 355.724 424.668 361.646 422.45C367.568 420.232 426.226 386.129 431.091 379.405C435.955 372.682 433.911 368.246 429.469 367.761C425.027 367.275 419.458 363.186 409.023 366.166" stroke="#003D2E" stroke-width="5" stroke-miterlimit="10" stroke-linecap="round" stroke-linejoin="round"/>
<path d="M336.517 144.946C354.863 118.261 348.104 81.7567 321.419 63.4098C294.735 45.0634 258.23 51.8228 239.884 78.5069C221.537 105.192 228.296 141.696 254.98 160.043C281.665 178.389 318.17 171.63 336.517 144.946Z" fill="#03FC9D" stroke="#003B2F" stroke-width="2.93894" stroke-miterlimit="10"/>
<path d="M347.767 130.319C359.182 100.014 343.869 66.1942 313.565 54.7795C283.26 43.3644 249.44 58.6776 238.025 88.982C226.611 119.286 241.924 153.106 272.228 164.521C302.532 175.936 336.352 160.623 347.767 130.319Z" fill="#E3E7E3" stroke="#003B2F" stroke-width="2.93894" stroke-linecap="round" stroke-linejoin="round"/>
<path d="M273.964 160.147C260.659 155.038 250.136 145.021 244.318 131.969C238.5 118.916 238.146 104.396 243.255 91.0911C248.365 77.7858 258.382 67.2628 271.434 61.4452C284.487 55.627 299.006 55.2727 312.311 60.3824C325.617 65.4921 336.14 75.509 341.957 88.5618C347.776 101.614 348.13 116.133 343.02 129.439C337.911 142.744 327.894 153.267 314.841 159.085C301.788 164.903 287.269 165.257 273.964 160.147Z" fill="#03FC9D" stroke="#003B2F" stroke-width="2.93894" stroke-linecap="round" stroke-linejoin="round"/>
<path d="M306.405 313.845C308.853 315.817 312.14 316.474 315.962 316.055C329.347 314.562 349.906 299.563 367.59 277.095C385.701 254.209 395.436 230.367 393.287 217.101C392.81 213.695 391.437 210.947 389.046 209.034C378.051 200.37 350.682 216.922 327.796 245.843C304.967 274.765 295.288 305.24 306.227 313.845H306.284H306.405Z" fill="#E3E7E3"/>
<path d="M306.461 313.844L320.21 323.704C331.02 332.369 358.389 315.936 381.154 287.074C403.926 258.212 413.547 227.916 402.666 219.312L389.224 209.034" fill="#03FC9D"/>
<path d="M306.461 313.844L320.21 323.704C331.02 332.369 358.389 315.936 381.154 287.074C403.926 258.212 413.547 227.916 402.666 219.312L389.224 209.034" stroke="#003B2F" stroke-width="2.60306" stroke-linecap="round" stroke-linejoin="round"/>
<path d="M306.405 313.845C308.853 315.817 312.14 316.474 315.962 316.055C329.347 314.562 349.906 299.563 367.59 277.095C385.701 254.209 395.436 230.367 393.287 217.101C392.81 213.695 391.437 210.947 389.046 209.034C378.051 200.37 350.682 216.922 327.796 245.843C304.967 274.765 295.288 305.24 306.227 313.845H306.284H306.405Z" fill="#E3E7E3" stroke="#003B2F" stroke-width="2.60306" stroke-linecap="round" stroke-linejoin="round"/>
<path d="M316.026 315.996C329.412 314.502 349.906 299.563 367.711 277.095C385.815 254.209 395.614 230.307 393.408 217.101C392.867 213.635 391.494 210.886 389.167 209.034C378.172 200.37 350.803 216.802 327.974 245.784C305.088 274.765 295.468 305.24 306.405 313.844C308.853 315.816 312.14 316.474 315.962 315.996H316.026Z" stroke="#003B2F" stroke-width="2.60306" stroke-linecap="round" stroke-linejoin="round"/>
<path d="M388.569 222.897C388.683 221.045 388.626 219.312 388.448 217.878C388.149 215.547 387.309 213.934 386.057 212.978C382.712 210.349 374.884 212.141 365.683 217.639C354.624 224.272 342.676 235.386 331.98 248.95C317.577 267.176 308.013 286.776 307.123 300.041C306.938 302.85 307.002 307.809 309.628 309.901C310.945 310.917 312.859 311.275 315.428 310.977C327.675 309.662 347.515 294.364 363.648 273.928C378.051 255.763 387.551 236.223 388.505 222.897H388.569Z" fill="#03FC9D" stroke="#003B2F" stroke-width="2.60306" stroke-linecap="round" stroke-linejoin="round"/>
<path d="M234.553 215.87L216.686 212.543C215.13 212.168 213.521 212.651 212.448 213.831C208.37 218.177 198.552 231.966 189.431 270.65C180.041 310.461 183.26 328.596 185.031 334.498C185.46 335.893 186.587 336.966 187.982 337.288L203.971 341.205" fill="#03FC9D"/>
<path d="M234.553 215.87L216.686 212.543C215.13 212.168 213.521 212.651 212.448 213.831C208.37 218.177 198.552 231.966 189.431 270.65C180.041 310.461 183.26 328.596 185.031 334.498C185.46 335.893 186.587 336.966 187.982 337.288L203.971 341.205" fill="#03FC9D"/>
<path d="M234.553 215.87L216.686 212.543C215.13 212.168 213.521 212.651 212.448 213.831C208.37 218.177 198.552 231.966 189.431 270.65C180.041 310.461 183.26 328.596 185.031 334.498C185.46 335.893 186.587 336.966 187.982 337.288L203.971 341.205" stroke="#003B2F" stroke-width="2.26718" stroke-miterlimit="10"/>
<path d="M233.641 282.079C242.065 247.472 242.494 217.801 234.554 215.87C234.017 215.762 233.48 215.709 232.891 215.87C231.603 216.138 230.208 216.997 228.759 218.392C221.086 225.742 211.536 247.901 204.883 275.05C198.23 302.36 196.567 326.558 200.054 336.537C200.967 339.22 202.308 340.829 203.971 341.259C211.912 343.19 225.164 316.686 233.641 282.079Z" fill="#E3E7E3" stroke="#003B2F" stroke-width="2.26718" stroke-miterlimit="10"/>
<path d="M229.885 281.059C236.914 252.247 237.397 227.352 231.924 226.011C226.451 224.669 216.257 246.936 209.229 275.801C202.2 304.613 200.966 329.08 206.438 330.421C211.911 331.762 222.856 309.871 229.885 281.059Z" fill="#03FC9D" stroke="#003B2F" stroke-width="2.26718" stroke-linecap="round" stroke-linejoin="round"/>
<path opacity="0.6" fill-rule="evenodd" clip-rule="evenodd" d="M366.634 238.055L352.812 255.622L356.463 269.248L366.634 238.055Z" fill="#003B2F"/>
<path fill-rule="evenodd" clip-rule="evenodd" d="M366.628 238.055L338.747 255.331L352.812 255.622L366.628 238.055Z" fill="#003B2F"/>
<path opacity="0.6" fill-rule="evenodd" clip-rule="evenodd" d="M338.648 273.677L329.26 285.648L354.272 272.022L338.648 273.677Z" fill="#003B2F"/>
<path fill-rule="evenodd" clip-rule="evenodd" d="M329.26 285.599L338.648 273.628L336.608 258.056L329.26 285.599Z" fill="#003B2F"/>
<path opacity="0.2" fill-rule="evenodd" clip-rule="evenodd" d="M340.792 270.903L356.411 269.248L352.76 255.623L340.74 270.903H340.792Z" fill="#003B2F"/>
<path opacity="0.6" fill-rule="evenodd" clip-rule="evenodd" d="M338.747 255.331L340.792 270.903L352.812 255.623L338.747 255.331Z" fill="#003B2F"/>
<path d="M310.63 95.3771C309.685 93.146 309.529 90.9148 310.108 88.9812H271.463C270.044 88.9812 269.149 90.0224 269.674 91.5098L272.404 99.2444C272.877 100.583 274.558 101.773 275.978 101.773L314.623 101.773C312.521 99.8394 311.26 97.6082 310.63 95.3771Z" fill="#003B2F"/>
<path d="M270.767 112.036C271.713 114.267 271.869 116.499 271.29 118.432H309.934C311.354 118.432 312.248 117.391 311.724 115.904L308.994 108.169C308.521 106.83 306.839 105.64 305.42 105.64H266.775C268.719 107.574 270.138 109.805 270.767 112.036Z" fill="#003B2F"/>
<path d="M322.39 128.695C321.445 126.464 321.288 124.233 321.868 122.299H283.223C281.803 122.299 280.909 123.341 281.434 124.828L284.164 132.562C284.636 133.901 286.318 135.091 287.738 135.091H326.383C324.281 133.157 323.02 130.926 322.39 128.695Z" fill="#003B2F"/>
<g clip-path="url(#clip0_804_105)">
<path d="M230.932 253.792L229.074 265.737C226.125 270.253 223.123 274.405 220.126 278.069C217.128 281.732 214.313 284.689 211.713 286.956L213.571 275.011C216.171 272.744 218.987 269.787 221.984 266.124C224.981 262.46 227.983 258.308 230.932 253.792Z" fill="#003B2F"/>
<path d="M209.277 302.619L211.135 290.674C214.084 286.158 217.086 282.006 220.083 278.343C223.081 274.679 225.896 271.723 228.496 269.455L226.638 281.4C224.038 283.668 221.223 286.624 218.225 290.288C215.228 293.951 212.226 298.104 209.277 302.619Z" fill="#003B2F"/>
</g>
<defs>
<clipPath id="clip0_804_105">
<rect width="38.5899" height="39.3617" fill="white" transform="matrix(0.633238 -0.773957 -0.153707 0.988117 210.923 273.619)"/>
</clipPath>
</defs>
</svg>
