<svg width="295" height="356" viewBox="0 0 295 356" fill="none" xmlns="http://www.w3.org/2000/svg">
<path d="M126.172 311.677C108.183 316.296 81.5322 308.634 69.4612 300.24C72.8845 302.402 76.6267 304.016 80.6422 305.161C89.5051 307.81 99.6765 307.856 110.934 305.145C111.293 305.065 111.772 304.959 112.131 304.879C164.737 291.393 220.442 221.874 236.502 149.491C236.707 148.425 236.912 147.359 237.116 146.294C237.287 145.644 237.384 144.943 237.48 144.242C237.526 144.163 237.571 144.085 237.543 143.956C246.192 99.4694 237.204 64.8912 215.834 49.5954C213.316 47.8443 210.71 46.2454 207.874 45.0398C239.832 54.309 262.922 100.225 250.378 156.394C234.289 228.648 178.539 298.246 126.006 311.782L126.172 311.677Z" fill="#E6E8EA"/>
<path d="M112.204 304.931C112.204 304.931 111.367 305.117 111.009 305.197C99.7504 307.909 89.579 307.863 80.7161 305.213C76.701 304.068 72.9584 302.454 69.5351 300.293C69.3867 300.19 69.1643 300.035 69.0165 299.932C45.2446 284.829 35.2867 247.273 46.2017 198.54C62.3367 126.209 118.042 56.6888 170.573 43.1549C185.004 39.462 197.612 40.3276 208.066 45.0666C210.858 46.3486 213.512 47.8647 216.031 49.6158C237.351 64.9939 246.388 99.4899 237.736 143.981C237.691 144.059 237.645 144.138 237.673 144.267C237.502 144.917 237.406 145.618 237.31 146.32C237.105 147.385 236.901 148.45 236.696 149.516C220.607 221.77 164.856 291.367 112.324 304.903L112.204 304.931Z" stroke="#003B2F" stroke-width="3" stroke-linecap="round" stroke-linejoin="round"/>
<path d="M125.476 312.513C107.487 317.131 80.8371 309.47 68.7654 301.076C72.1891 303.237 75.9313 304.851 79.9475 305.996C88.8097 308.645 98.9807 308.692 110.239 305.98C110.598 305.9 111.076 305.794 111.435 305.714C164.041 292.229 219.747 222.709 235.807 150.326C236.012 149.26 236.216 148.195 236.421 147.129C236.592 146.48 236.688 145.779 236.784 145.077C236.83 144.999 236.876 144.92 236.847 144.791C245.496 100.305 236.508 65.7263 215.139 50.4305C212.621 48.6799 210.014 47.0805 207.179 45.8749C239.136 55.1442 262.223 101.067 249.683 157.23C233.594 229.484 177.843 299.082 125.311 312.618L125.476 312.513Z" fill="#03FC9D" stroke="#003B2F" stroke-width="3" stroke-linecap="round" stroke-linejoin="round"/>
<path d="M111.482 305.634C111.482 305.634 110.644 305.821 110.286 305.901C99.028 308.612 88.8566 308.566 79.9937 305.917C75.9786 304.771 72.236 303.158 68.8121 300.996C68.6643 300.893 68.4419 300.739 68.2941 300.636C44.5222 285.533 34.5643 247.977 45.4793 199.244C61.6143 126.912 117.32 57.3925 169.852 43.8558C184.283 40.1629 196.891 41.0285 207.341 45.7744C210.133 47.0564 212.787 48.5725 215.305 50.3232C236.631 65.6948 245.663 100.198 237.014 144.685C236.968 144.763 236.923 144.841 236.951 144.971C236.78 145.621 236.684 146.322 236.587 147.023C236.383 148.089 236.178 149.155 235.974 150.219C219.884 222.473 164.133 292.071 111.601 305.608L111.482 305.634Z" stroke="#003B2F" stroke-width="3" stroke-linecap="round" stroke-linejoin="round"/>
<g clip-path="url(#clip0_799_23)">
<path d="M189.373 199.696L177.769 188.995L121.784 137.518C139.954 126.397 163.58 133.636 174.553 153.6C178.824 161.404 180.722 170.319 179.921 179.156L186.561 185.267L187.535 186.177C193.078 159.138 177.026 131.637 151.7 124.718C140.841 121.767 129.464 123.036 119.614 128.304C116.612 129.938 112.887 129.388 110.237 126.958L106.734 123.732L97.9712 127.53L108.264 137.052L111.617 140.093L114.876 143.092L173.905 197.411L180.545 203.523L194.284 216.129L203.047 212.331L189.43 199.838L189.373 199.696ZM185.399 219.813L109.436 149.861L102.797 143.75L89.1512 131.186L80.388 134.984L93.9115 147.434L105.487 158.065L161.501 209.613C143.331 220.734 119.734 213.565 108.695 193.629C104.424 185.826 102.498 176.839 103.364 167.974L102.905 167.59L95.6849 160.981C90.1424 188.02 106.194 215.521 131.52 222.44C142.379 225.391 153.755 224.123 163.606 218.855C166.608 217.221 170.333 217.77 172.983 220.2L176.486 223.427L185.249 219.629L185.399 219.813Z" fill="#03FC9D"/>
</g>
<defs>
<clipPath id="clip0_799_23">
<rect width="115.54" height="97.52" fill="white" transform="matrix(0.936568 -0.207254 0.224528 1.01463 76.5991 136.185)"/>
</clipPath>
</defs>
</svg>
