<svg width="300" height="300" viewBox="0 0 300 300" fill="none" xmlns="http://www.w3.org/2000/svg">
<path d="M76.5859 57.5241C81.6985 52.897 87.6738 49.3268 94.1687 47.0184C100.664 44.7101 107.55 43.7091 114.432 44.0729V61.4076C109.911 61.1595 105.388 61.8756 101.163 63.5087C96.9387 65.1417 93.1087 67.6543 89.9267 70.8803C83.798 79.496 80.8543 89.9783 81.6007 100.529V198.002C80.8543 208.552 83.798 219.034 89.9267 227.651C93.0831 231.121 96.9693 233.848 101.305 235.633C105.641 237.417 110.318 238.219 115 237.976V254.933C108.111 255.283 101.221 254.268 94.7259 251.942C88.2306 249.617 82.2588 246.03 77.1537 241.385C72.1211 235.735 68.2925 229.115 65.9009 221.934C63.5096 214.751 62.6059 207.156 63.2451 199.612V99.298C62.5404 91.794 63.3591 84.225 65.6516 77.046C67.9444 69.8672 71.6638 63.2266 76.5859 57.5241Z" fill="#003D2E"/>
<path d="M137.93 57.5192C148.2 48.1928 161.723 43.3555 175.53 44.0691V61.4025C171.024 61.1531 166.516 61.868 162.303 63.5005C158.091 65.1332 154.269 67.6463 151.09 70.8745C145.034 79.502 142.143 89.9822 142.912 100.521V197.986C142.143 208.525 145.034 219.006 151.09 227.633C154.234 231.092 158.096 233.811 162.402 235.595C166.707 237.381 171.35 238.187 176 237.958V254.912C169.079 255.315 162.149 254.327 155.612 252.001C149.075 249.674 143.064 246.061 137.93 241.366C132.947 235.709 129.16 229.086 126.801 221.906C124.441 214.723 123.558 207.133 124.206 199.596V99.2899C123.564 91.7534 124.449 84.1643 126.809 76.9835C129.168 69.8028 132.952 63.1806 137.93 57.5192Z" fill="#03FC9D"/>
<path d="M198.631 57.5193C208.885 48.2006 222.379 43.3639 236.156 44.0673V61.4031C231.643 61.1461 227.128 61.8572 222.908 63.4901C218.688 65.1231 214.859 67.6402 211.672 70.8763C205.708 79.6698 202.987 90.2957 203.979 100.906V198.006C203.212 208.545 206.097 219.028 212.14 227.656C215.282 231.112 219.138 233.827 223.432 235.611C227.729 237.394 232.36 238.205 237 237.982V254.939C223.212 255.607 209.72 250.735 199.475 241.391C194.42 235.767 190.549 229.163 188.099 221.981C185.648 214.8 184.667 207.191 185.215 199.615V99.2957C184.558 91.7793 185.408 84.2063 187.713 77.0286C190.018 69.851 193.731 63.2159 198.631 57.5193Z" fill="#003D2E"/>
</svg>
