<svg width="300" height="300" viewBox="0 0 300 300" fill="none" xmlns="http://www.w3.org/2000/svg">
<path opacity="0.74" d="M237.752 226.5C243.051 220.316 247.745 213.639 251.77 206.56L228.091 194.726C224.659 200.455 220.468 205.693 215.631 210.297C209.946 215.917 202.648 219.62 194.755 220.891C181.045 222.766 171.069 218.404 157.051 209.369C142.406 200.022 125.581 189.116 101.591 192.232C87.2613 194.095 73.8623 201.579 62.0199 214.667C56.7212 220.85 52.0271 227.527 48.002 234.607L71.6814 246.44C75.1143 240.711 79.3068 235.473 84.1446 230.869C89.8296 225.249 97.128 221.545 105.02 220.274C106.983 220.015 108.962 219.911 110.941 219.962C121.846 219.962 130.569 224.332 142.721 231.796C156.432 240.831 173.879 251.736 198.182 248.621C213.139 246.759 226.536 239.28 237.752 226.5ZM237.752 155.771C243.051 149.587 247.745 142.91 251.77 135.831L228.094 124.005C224.662 129.736 220.469 134.977 215.631 139.583C209.946 145.203 202.648 148.906 194.755 150.177C181.045 152.041 171.069 147.672 157.051 138.642C142.095 129.295 125.27 118.389 101.591 121.505C87.2613 123.373 73.8623 130.852 62.0199 143.938C56.7214 150.12 52.0273 156.796 48.002 163.874L71.6814 175.708C75.1138 169.976 79.3063 164.736 84.1446 160.129C89.8313 154.514 97.1295 150.814 105.02 149.547C106.983 149.288 108.962 149.184 110.941 149.235C121.846 149.235 130.569 153.605 142.721 161.069C156.432 170.109 173.879 181.016 198.183 177.892C213.634 175.602 227.709 167.733 237.752 155.771ZM237.752 84.7311C243.051 78.5473 247.745 71.8701 251.77 64.791L228.091 52.9576C224.658 58.689 220.466 63.9292 215.627 68.5358C209.943 74.1546 202.646 77.8582 194.755 79.1293C181.045 80.999 171.069 76.6371 157.051 67.6018C142.41 58.2535 125.585 47.6599 101.594 50.4563C87.2613 52.335 73.8623 59.8119 62.0199 72.8977C56.7211 79.0821 52.027 85.7599 48.002 92.8396L71.6814 104.673C75.1138 98.9416 79.3063 93.7013 84.1446 89.0948C89.8306 83.4773 97.1289 79.7757 105.02 78.5067C106.983 78.2477 108.962 78.1436 110.941 78.1954C121.846 78.1954 130.569 82.5646 142.721 90.0287C156.432 99.0639 173.879 109.976 198.183 106.859C213.139 104.992 226.536 97.5129 237.752 84.7383V84.7311Z" fill="#03FC9D"/>
<path d="M237.75 226.503C243.049 220.319 247.743 213.642 251.768 206.563L228.089 194.73C224.657 200.458 220.466 205.696 215.629 210.3C209.944 215.92 202.646 219.624 194.753 220.894C181.043 222.769 171.067 218.407 157.049 209.372C142.405 200.025 125.579 189.119 101.589 192.236C87.2594 194.098 73.8604 201.582 62.0179 214.67C56.7192 220.853 52.0251 227.531 48 234.61L71.6794 246.443C75.1124 240.714 79.3048 235.477 84.1426 230.872C89.8276 225.252 97.126 221.548 105.018 220.277C106.981 220.018 108.96 219.914 110.939 219.966C121.844 219.966 130.568 224.335 142.719 231.799C156.43 240.834 173.878 251.739 198.18 248.624C213.137 246.762 226.534 239.283 237.75 226.503ZM237.75 155.774C243.049 149.591 247.743 142.913 251.768 135.834L228.092 124.008C224.66 129.739 220.468 134.98 215.629 139.586C209.944 145.206 202.646 148.909 194.753 150.18C181.043 152.044 171.067 147.675 157.049 138.645C142.093 129.299 125.268 118.392 101.589 121.509C87.2594 123.376 73.8604 130.855 62.0179 143.941C56.7194 150.124 52.0253 156.8 48 163.877L71.6794 175.711C75.1118 169.979 79.3043 164.739 84.1426 160.133C89.8294 154.517 97.1276 150.817 105.018 149.55C106.981 149.291 108.96 149.187 110.939 149.239C121.844 149.239 130.568 153.608 142.719 161.072C156.43 170.113 173.878 181.019 198.181 177.895C213.632 175.606 227.707 167.736 237.75 155.774ZM237.75 84.7342C243.049 78.5505 247.743 71.8733 251.768 64.7942L228.089 52.9608C224.656 58.6921 220.464 63.9324 215.626 68.5389C209.941 74.1578 202.644 77.8613 194.753 79.1325C181.043 81.0022 171.067 76.6402 157.049 67.605C142.408 58.2567 125.583 47.6631 101.592 50.4594C87.2594 52.3382 73.8604 59.815 62.0179 72.9009C56.7191 79.0852 52.025 85.763 48 92.8428L71.6794 104.676C75.1118 98.9448 79.3043 93.7045 84.1426 89.098C89.8286 83.4805 97.1269 79.7788 105.018 78.5099C106.981 78.2509 108.96 78.1468 110.939 78.1986C121.844 78.1986 130.568 82.5678 142.719 90.0319C156.43 99.0671 173.878 109.979 198.181 106.863C213.137 104.995 226.534 97.516 237.75 84.7415V84.7342Z" fill="#03FC9D"/>
</svg>
