<svg width="300" height="300" viewBox="0 0 300 300" fill="none" xmlns="http://www.w3.org/2000/svg">
<path d="M105.862 175.716L213.924 254.185C189.411 268.176 153.808 266.968 131.211 250.559L54.4481 194.819C47.184 189.544 47.184 180.992 54.4481 175.716C68.6456 165.407 91.6645 165.407 105.862 175.716Z" fill="#03FC9D" stroke="#03FC9D" stroke-width="4"/>
<path d="M168.789 49.2851L245.552 105.026C252.816 110.301 252.816 118.853 245.552 124.128C231.354 134.437 208.336 134.437 194.138 124.128L86.0762 45.6597C110.589 31.6677 146.192 32.8762 168.789 49.2851Z" fill="#03FC9D" stroke="#03FC9D" stroke-width="4"/>
<path d="M230.385 236.577L73.4582 122.626C50.8614 106.217 49.1969 80.3641 68.4655 62.5642L225.392 176.516C247.989 192.924 249.654 218.777 230.385 236.577Z" fill="#03FC9D" stroke="#03FC9D" stroke-width="4"/>
</svg>
