<svg width="300" height="300" viewBox="0 0 300 300" fill="none" xmlns="http://www.w3.org/2000/svg">
<path d="M122.994 173.656L147.067 181.054L136.181 191.94L135.191 192.93L118.638 187.857C102.913 183.031 91.1613 170.624 87.1902 154.665C83.2191 138.707 87.7848 122.241 99.4141 110.612L164.3 45.6987C164.499 45.7863 164.696 45.8845 164.882 45.996C165.081 46.0942 165.277 46.2057 165.463 46.3066C165.797 46.4791 166.119 46.6782 166.453 46.864C166.774 47.0499 167.096 47.2463 167.419 47.4587C167.68 47.6206 167.926 47.7798 168.173 47.9524C168.42 48.1143 168.667 48.2869 168.917 48.4727C169.153 48.6346 169.373 48.8071 169.596 48.9797C169.795 49.1151 169.992 49.277 170.177 49.4362C170.35 49.561 170.512 49.6964 170.671 49.845C170.695 49.8583 170.722 49.8689 170.745 49.8955C171.489 50.514 172.192 51.1564 172.885 51.8492L176.028 54.9921L109.905 121.105C102 129.023 98.8938 140.217 101.591 151.079C104.288 161.941 112.291 170.377 122.994 173.656Z" fill="white"/>
<path d="M130.082 151.908L166.477 161.644L154.354 173.767L126.246 166.245C118.243 164.116 112.193 158.066 110.04 150.063C107.901 142.06 110.115 133.793 115.965 127.943L182.473 61.4348L192.977 71.9386L126.469 138.433C125.651 139.262 125.033 140.201 124.627 141.242C124.021 142.827 123.934 144.544 124.38 146.227C124.467 146.562 124.579 146.883 124.714 147.193C125.667 149.519 127.61 151.252 130.084 151.908H130.082Z" fill="white"/>
<path d="M200.234 189.038L200.234 189.038L135.334 253.951L126.522 262.763C123.726 261.02 121.112 258.936 118.724 256.547L115.934 253.757L124.327 245.364L190.45 179.252L190.097 178.898L190.45 179.252C198.493 171.209 201.649 159.822 198.896 148.803C196.143 137.771 188.025 129.199 177.154 125.869L153.886 118.728L154.288 118.326L164.962 107.653L181.227 112.637C181.228 112.637 181.228 112.637 181.228 112.637C196.782 117.412 208.408 129.683 212.337 145.471C216.252 161.26 211.739 177.546 200.234 189.038Z" fill="white" stroke="#003D2E"/>
<path d="M176.106 153.659C176.578 155.43 176.486 157.254 175.843 158.938C175.431 160.05 174.772 161.048 173.9 161.934L173.897 161.936L107.389 228.431L98.9962 236.824L108.793 246.621L117.186 238.228L183.681 171.72C189.405 165.993 191.57 157.901 189.476 150.07C187.37 142.25 181.455 136.335 173.624 134.228C173.624 134.228 173.624 134.228 173.624 134.228L145.808 126.806L144.998 127.617L134.903 137.712L134.502 138.113L170.049 147.612L170.05 147.613C172.684 148.319 174.765 150.16 175.765 152.633L175.766 152.637C175.893 152.96 176.012 153.3 176.106 153.659ZM176.106 153.659C176.106 153.659 176.106 153.66 176.106 153.66L175.622 153.787L176.105 153.658C176.105 153.658 176.105 153.659 176.106 153.659Z" fill="white" stroke="#003D2E"/>
<path d="M256.9 118.357L201.724 63.1811L191.22 52.6773L181.645 43.1025C179.134 40.5914 176.363 38.4147 173.406 36.607C166.441 32.3014 158.4 30 149.999 30C138.048 30 126.814 34.6507 118.365 43.0999L43.0999 118.357C34.6507 126.82 30 138.053 30 150.004C30 161.954 34.6507 173.188 43.0999 181.651L98.2893 236.827L107.036 228.08L51.8464 172.891C45.7358 166.78 42.3699 158.652 42.3699 150.004C42.3699 141.356 45.7358 133.228 51.8464 127.117L127.114 51.8491C133.225 45.7384 141.353 42.3726 150.001 42.3726C150.508 42.3726 151.015 42.3858 151.512 42.4097H151.66C152.181 42.4336 152.698 42.484 153.219 42.5345C153.638 42.5716 154.06 42.6221 154.469 42.6831C154.543 42.6831 154.604 42.6964 154.668 42.707C154.83 42.7203 154.978 42.7442 155.124 42.7681C155.52 42.8291 155.905 42.9035 156.287 42.9778C156.361 42.9911 156.423 43.0017 156.497 43.0149C156.879 43.1025 157.251 43.1875 157.636 43.2751C157.994 43.3627 158.352 43.4476 158.711 43.5591C158.897 43.6095 159.093 43.6573 159.279 43.721C159.563 43.8086 159.847 43.8936 160.133 43.9944C160.691 44.1803 161.259 44.3767 161.803 44.5997C162.087 44.6873 162.361 44.7988 162.631 44.9341C162.915 45.0456 163.199 45.1704 163.473 45.3058C163.757 45.4305 164.03 45.5659 164.301 45.7013L99.4148 110.614C87.7855 122.243 83.2198 138.709 87.1909 154.668C91.162 170.627 102.913 183.036 118.639 187.86L135.192 192.932L136.182 191.942L147.068 181.056L122.995 173.658C112.294 170.38 104.288 161.941 101.591 151.082C98.8945 140.22 102 129.023 109.905 121.107L176.029 54.9946L175.941 54.907L182.474 61.4397L115.966 127.948C110.115 133.798 107.899 142.064 110.041 150.068C112.193 158.071 118.243 164.121 126.246 166.249L154.355 173.772L166.478 161.649L130.082 151.913C127.608 151.257 125.665 149.526 124.712 147.198C124.577 146.888 124.465 146.566 124.378 146.232C123.932 144.549 124.019 142.829 124.624 141.247C125.033 140.209 125.652 139.267 126.467 138.438L192.975 71.9435L248.151 127.12C254.262 133.23 257.627 141.358 257.627 150.007C257.627 158.655 254.262 166.783 248.151 172.894L172.883 248.162C166.772 254.272 158.644 257.638 149.996 257.638C149.489 257.638 148.982 257.625 148.486 257.601H148.337C147.941 257.577 147.557 257.55 147.174 257.513C147.039 257.5 146.914 257.489 146.779 257.476C146.397 257.439 146.025 257.402 145.64 257.341C145.579 257.341 145.515 257.327 145.454 257.317C145.292 257.304 145.12 257.28 144.947 257.256C144.515 257.181 144.092 257.107 143.673 257.033C143.612 257.009 143.548 256.996 143.5 256.996C143.118 256.908 142.733 256.823 142.362 256.736C142.003 256.648 141.645 256.563 141.287 256.451C141.04 256.39 140.804 256.316 140.57 256.252C140.151 256.128 139.728 255.992 139.32 255.844C139.195 255.793 139.073 255.756 138.948 255.708C138.911 255.695 138.887 255.684 138.85 255.671C138.491 255.546 138.144 255.411 137.799 255.262C137.65 255.212 137.501 255.138 137.353 255.076C136.846 254.853 136.339 254.631 135.832 254.384C135.781 254.36 135.733 254.333 135.683 254.309L126.591 263.401C133.557 267.707 141.597 270.008 149.999 270.008C161.949 270.008 173.183 265.357 181.645 256.908L256.9 181.653C265.349 173.191 270 161.957 270 150.007C270 138.056 265.349 126.822 256.9 118.36V118.357Z" fill="#03FC9D"/>
</svg>
