<svg width="250" height="250" viewBox="0 0 250 250" fill="none" xmlns="http://www.w3.org/2000/svg">
<path d="M88.9467 218.803C75.6209 220.302 66.2233 213.005 56.8772 204.867C43.5183 193.234 35.2858 175.904 46.4251 162.328C57.215 149.179 78.6808 145.96 78.6808 145.96C78.6808 145.96 52.5054 149.411 36.2101 134.865C27.9 127.447 23.2388 117.747 22.0833 106.525C20.5969 92.0896 18.1728 62.5537 18.0055 51.6493C17.8165 39.3218 22.4748 31.081 30.5921 30.1741C50.0156 28.0039 72.8328 46.3371 95.0058 73.4476C116.557 99.7974 125 118.437 125 118.437C125 118.437 133.443 99.7974 154.994 73.4476C177.166 46.3371 199.984 28.0039 219.407 30.1741C227.524 31.081 232.183 39.3218 231.994 51.6493C231.827 62.5537 229.402 92.0896 227.916 106.525C226.76 117.747 222.099 127.447 213.79 134.865C197.495 149.411 171.319 145.96 171.319 145.96C171.319 145.96 192.785 149.179 203.575 162.328C214.714 175.904 206.482 193.234 193.123 204.867C183.777 213.005 174.379 220.302 161.053 218.803C136.814 216.076 125 170.763 125 170.763C125 170.763 113.185 216.076 88.9467 218.803Z" fill="white"/>
</svg>
