<svg width="250" height="250" viewBox="0 0 250 250" fill="none" xmlns="http://www.w3.org/2000/svg">
<path fill-rule="evenodd" clip-rule="evenodd" d="M125.5 25C68.8687 25 23 70.8819 23 127.529C23 172.899 52.3406 211.219 93.0844 224.804C98.2094 225.701 100.131 222.625 100.131 219.934C100.131 217.499 100.003 209.425 100.003 200.838C74.25 205.58 67.5875 194.558 65.5375 188.791C64.3844 185.843 59.3875 176.743 55.0312 174.308C51.4437 172.386 46.3187 167.644 54.9031 167.516C62.975 167.388 68.7406 174.949 70.6625 178.025C79.8875 193.533 94.6219 189.175 100.516 186.484C101.413 179.819 104.103 175.334 107.05 172.77C84.2437 170.207 60.4125 161.364 60.4125 122.147C60.4125 110.997 64.3844 101.769 70.9188 94.5918C69.8938 92.0286 66.3062 81.5193 71.9437 67.4215C71.9437 67.4215 80.5281 64.7301 100.131 77.9308C108.331 75.6239 117.044 74.4704 125.756 74.4704C134.469 74.4704 143.181 75.6239 151.381 77.9308C170.984 64.602 179.569 67.4215 179.569 67.4215C185.206 81.5193 181.619 92.0286 180.594 94.5918C187.128 101.769 191.1 110.868 191.1 122.147C191.1 161.492 167.141 170.207 144.334 172.77C148.05 175.975 151.253 182.126 151.253 191.738C151.253 205.452 151.125 216.474 151.125 219.934C151.125 222.625 153.047 225.829 158.172 224.804C198.659 211.219 228 172.77 228 127.529C228 70.8819 182.131 25 125.5 25Z" fill="white"/>
</svg>
