<svg width="400" height="400" viewBox="0 0 400 400" fill="none" xmlns="http://www.w3.org/2000/svg">
<g clip-path="url(#clip0_876_273)">
<path d="M133.411 39.7348C69.266 59.8713 38.8888 145.004 65.5552 229.919C92.2228 314.834 165.819 367.389 229.964 347.252L267.154 335.571L170.664 28.0914L133.474 39.7712L133.411 39.7348Z" stroke="#003D2E" stroke-width="5" stroke-linecap="round" stroke-linejoin="round"/>
<path d="M107.41 216.83C134.052 301.739 206.178 354.718 268.509 335.16C330.84 315.602 359.772 230.915 333.131 146.006C306.489 61.0978 234.362 8.11976 172.032 27.6763C109.701 47.234 80.7688 131.921 107.41 216.83Z" fill="#E6E8EA" stroke="#003D2E" stroke-width="5" stroke-linecap="round" stroke-linejoin="round"/>
<path d="M133.411 39.7348C69.266 59.8713 38.8888 145.004 65.5552 229.919C92.2228 314.834 165.819 367.389 229.964 347.252L267.154 335.571L170.664 28.0914L133.474 39.7712L133.411 39.7348Z" fill="#03FC9E"/>
<path d="M133.411 39.7348C69.266 59.8713 38.8888 145.004 65.5552 229.919C92.2228 314.834 165.819 367.389 229.964 347.252L267.154 335.571L170.664 28.0914L133.474 39.7712L133.411 39.7348Z" stroke="#003D2E" stroke-width="5" stroke-linecap="round" stroke-linejoin="round"/>
<path d="M107.41 216.83C134.052 301.739 206.178 354.718 268.509 335.16C330.84 315.602 359.772 230.915 333.131 146.006C306.489 61.0978 234.362 8.11976 172.032 27.6763C109.701 47.234 80.7688 131.921 107.41 216.83Z" fill="#E6E8EA" stroke="#003D2E" stroke-width="5" stroke-linecap="round" stroke-linejoin="round"/>
<path d="M134.593 208.34C156.779 279.045 214.748 323.819 264.072 308.342C313.397 292.866 335.399 223.001 313.213 152.295C291.028 81.5891 233.057 36.8163 183.733 52.2926C134.408 67.7689 112.408 137.633 134.593 208.34Z" fill="#A9FEDE" stroke="#003D2E" stroke-width="5" stroke-miterlimit="10"/>
</g>
<defs>
<clipPath id="clip0_876_273">
<rect width="400" height="400" fill="white"/>
</clipPath>
</defs>
</svg>
